<?xml version="1.0" encoding="UTF-8" standalone="no"?>
<!-- Created with Inkscape (http://www.inkscape.org/) -->

<svg
   xmlns:dc="http://purl.org/dc/elements/1.1/"
   xmlns:cc="http://creativecommons.org/ns#"
   xmlns:rdf="http://www.w3.org/1999/02/22-rdf-syntax-ns#"
   xmlns:svg="http://www.w3.org/2000/svg"
   xmlns="http://www.w3.org/2000/svg"
   xmlns:sodipodi="http://sodipodi.sourceforge.net/DTD/sodipodi-0.dtd"
   xmlns:inkscape="http://www.inkscape.org/namespaces/inkscape"
   width="210mm"
   height="297mm"
   viewBox="0 0 210 297"
   version="1.1"
   id="svg3721"
   inkscape:version="0.92.2 (unknown)"
   sodipodi:docname="drawing.svg">
  <defs
     id="defs3715" />
  <sodipodi:namedview
     id="base"
     pagecolor="#ffffff"
     bordercolor="#666666"
     borderopacity="1.0"
     inkscape:pageopacity="0.0"
     inkscape:pageshadow="2"
     inkscape:zoom="0.35"
     inkscape:cx="400"
     inkscape:cy="674.28571"
     inkscape:document-units="mm"
     inkscape:current-layer="layer1"
     showgrid="false"
     inkscape:window-width="1301"
     inkscape:window-height="744"
     inkscape:window-x="65"
     inkscape:window-y="24"
     inkscape:window-maximized="1" />
  <metadata
     id="metadata3718">
    <rdf:RDF>
      <cc:Work
         rdf:about="">
        <dc:format>image/svg+xml</dc:format>
        <dc:type
           rdf:resource="http://purl.org/dc/dcmitype/StillImage" />
        <dc:title></dc:title>
      </cc:Work>
    </rdf:RDF>
  </metadata>
  <g
     inkscape:label="Layer 1"
     inkscape:groupmode="layer"
     id="layer1">
    <path
       id="path3909"
       d="m 138.45751,64.149983 c -1.80242,2.480265 -1.96943,2.762855 -4.3724,5.689584 -3.09245,3.766507 -10.05171,11.895259 -12.84343,15.199558 -8.76854,10.378516 -6.77842,8.027257 -15.19106,18.304235 -7.097698,8.9936 -14.442447,17.87958 -20.512663,27.62318 -0.580803,0.95405 -1.179409,1.89718 -1.759823,2.85145 0,0 -10.337046,4.48824 -10.337046,4.48824 v 0 c 0.768268,-0.95396 1.44652,-1.97639 2.15383,-2.97515 6.741835,-9.99519 14.753828,-19.07992 22.252194,-28.49559 8.981008,-10.887602 18.210568,-21.615168 26.706228,-32.891694 1.94865,-2.586497 2.2285,-3.063628 3.69204,-5.289838 0,0 10.21213,-4.503975 10.21213,-4.503975 z"
       inkscape:connector-curvature="0"
       style="stroke-width:0.26458332" />
    <path
       id="path3911"
       d="m 88.56951,131.19317 c 10.028325,0.42533 20.0652,0.37367 30.09355,0.0153 8.48183,-0.44296 16.88464,-1.70803 25.25375,-3.09538 0,0 -8.46475,6.34793 -8.46475,6.34793 v 0 c -8.25891,1.14562 -16.52888,2.30072 -24.86877,2.65964 -10.34365,0.33081 -20.691569,0.2965 -31.034783,0.62665 0,0 9.021003,-6.55414 9.021003,-6.55414 z"
       inkscape:connector-curvature="0"
       style="stroke-width:0.26458332" />
    <path
       id="path3917"
       d="m 141.55464,129.59795 c -13.57149,20.27112 -26.70484,40.82181 -39.24589,61.7459 -6.806706,11.75575 -13.582429,23.55782 -19.419804,35.83348 -0.261519,0.59001 -0.523039,1.18002 -0.784556,1.77002 0,0 -9.938975,4.51814 -9.938975,4.51814 v 0 c 0.31908,-0.62504 0.63816,-1.25009 0.957236,-1.87513 6.694501,-12.51512 14.111132,-24.63111 21.403273,-36.80138 12.398696,-20.21777 25.262056,-40.16448 37.096746,-60.72004 0,0 9.93197,-4.47099 9.93197,-4.47099 z"
       inkscape:connector-curvature="0"
       style="stroke-width:0.26458332" />
    <path
       id="path3929"
       transform="scale(0.26458333)"
       style="stroke-width:0.99999994"
       d="m 427.44141,352.44141 -21.86914,11.14453 c -0.2164,2.75461 -0.72639,5.19266 -1.46094,7.32031 0.90245,-0.43545 1.80473,-0.87133 2.70703,-1.30664 0.33493,-0.23344 0.78162,-0.34393 1.14062,-0.55078 -0.38021,0.18343 -0.7604,0.36735 -1.14062,0.55078 -0.10759,0.075 -0.20566,0.16136 -0.2832,0.26953 -1.61787,2.25661 -2.85657,4.76163 -4.28516,7.14258 -3.56065,5.93441 -7.71601,9.52369 -11.75,11.22461 1.45668,34.73483 1.55756,69.52686 1.88477,104.28515 0.25296,53.40896 -2.46576,106.76917 -5.81446,160.05469 -2.27312,10.64897 0.47256,26.02359 -3.70117,36.24219 -1.50841,1.98652 -1.93981,2.35752 -1.85742,4.96094 -0.0854,2.66744 0.031,5.33566 0.0234,8.00586 -0.008,0.45569 -0.012,0.91149 -0.0195,1.36718 l 21.8418,-11.13476 v -6.64063 -0.92968 c -1.19683,-2.15513 -1.59808,-4.04271 0,-4.78516 0,-0.47618 -0.47622,-1.42774 0,-1.42773 0.86775,-10e-6 1.80426,0.0675 2.77149,0.16796 6.34283,-2.82571 11.15984,-4.51592 14.8125,-5.27929 0.34001,-0.57326 0.62093,-1.18227 0.7207,-1.94727 -2.8497,0.41059 -5.69827,0.92807 -8.52149,0.54883 -1.48199,-0.19918 2.4621,-1.73164 3.82813,-2.33984 1.71971,-0.76568 3.40415,-1.18162 5.09961,-1.35547 1.27895,-10.93499 -1.0715,-22.29286 0.18555,-33.21485 0.6082,-52.93852 2.23865,-105.85387 3.00586,-158.78906 0.3841,-41.19714 0.4839,-82.43468 2.68164,-123.58398 z" />
  </g>
</svg>
