<?xml version="1.0" standalone="no"?>
<!DOCTYPE svg PUBLIC "-//W3C//DTD SVG 20010904//EN"
 "http://www.w3.org/TR/2001/REC-SVG-20010904/DTD/svg10.dtd">
<svg version="1.0" xmlns="http://www.w3.org/2000/svg"
 width="1048.000000pt" height="1048.000000pt" viewBox="0 0 1048.000000 1048.000000"
 preserveAspectRatio="xMidYMid meet">
<metadata>
Created by potrace 1.11, written by Peter Selinger 2001-2013
</metadata>
<g transform="translate(0.000000,1048.000000) scale(0.100000,-0.100000)"
fill="#000000" stroke="none">
<path d="M1630 5245 l0 -5235 25 22 c14 12 25 25 25 30 0 4 19 25 42 46 24 20
58 54 78 75 19 21 55 57 79 80 24 23 49 48 55 55 6 7 176 180 379 384 202 204
367 373 367 374 0 2 28 30 62 61 34 32 69 66 77 75 9 10 45 46 80 80 35 35 71
71 80 80 9 10 45 46 80 80 36 35 81 81 100 102 20 21 56 57 81 80 24 23 60 58
80 80 19 21 57 59 84 85 27 25 61 58 75 73 14 15 368 370 785 790 801 804 775
776 776 866 0 17 4 32 9 32 4 0 14 51 21 113 7 61 15 117 20 122 4 6 13 62 20
125 6 63 17 125 22 137 6 12 8 35 6 52 -3 17 -1 31 3 31 4 0 10 39 14 88 4 48
11 92 15 97 4 6 13 75 20 155 7 80 16 150 20 155 4 6 13 89 20 185 7 96 16
180 21 185 4 6 12 111 19 235 6 124 15 234 20 245 14 32 19 305 6 306 -22 3
-214 -4 -376 -12 -91 -5 -397 -20 -680 -34 -283 -13 -580 -29 -660 -34 -80 -5
-250 -15 -377 -22 -128 -7 -233 -16 -233 -21 0 -4 -26 -8 -57 -9 -32 0 -112
-7 -178 -15 -66 -8 -136 -14 -157 -14 -20 1 -53 -8 -75 -19 -21 -11 -50 -25
-65 -30 -16 -6 -28 -15 -28 -20 0 -5 -13 -12 -29 -16 -16 -3 -43 -17 -62 -31
-42 -31 -51 -30 -72 5 -22 38 -22 82 2 112 72 89 106 123 222 229 51 47 102
94 113 105 12 11 41 35 66 54 25 19 67 56 95 82 27 27 54 49 60 49 5 0 28 19
50 41 22 23 63 58 90 79 28 21 68 55 90 75 22 20 59 50 82 66 23 16 43 32 45
36 1 5 23 24 48 42 25 19 55 45 67 57 13 12 40 35 60 50 21 16 59 46 84 69 26
22 75 63 109 90 34 28 83 68 109 90 25 23 62 53 81 67 19 14 50 40 68 57 18
17 36 31 40 31 4 0 29 21 56 45 27 25 62 53 78 63 15 9 28 19 28 22 0 4 27 26
61 51 33 24 64 48 67 54 4 5 33 30 65 54 31 24 57 47 57 52 0 4 9 10 20 14 11
3 43 28 72 56 29 27 56 49 60 49 5 0 27 18 50 40 24 22 46 40 50 40 4 0 29 20
55 45 26 24 51 45 55 45 4 0 26 18 50 40 24 23 55 47 70 55 15 8 31 21 35 28
4 7 31 30 58 52 28 21 69 57 93 79 23 22 42 37 42 32 0 -4 21 13 47 38 25 25
51 46 58 46 6 0 33 23 60 50 27 28 54 50 60 50 5 0 33 22 60 50 28 27 55 50
60 50 6 0 34 23 64 50 29 28 56 50 60 50 4 0 20 13 37 28 16 16 52 46 79 67
28 21 68 55 90 76 22 22 43 39 47 39 4 0 33 24 64 53 30 28 64 57 74 62 10 6
43 34 74 63 31 28 60 52 64 52 4 0 27 19 52 43 25 23 66 58 90 77 25 19 69 57
97 84 29 28 61 55 72 61 10 5 50 39 87 74 38 35 80 71 94 80 13 9 32 23 40 31
66 63 161 147 190 169 19 14 47 37 61 51 77 74 234 216 244 220 7 3 39 29 72
59 104 97 277 257 328 304 35 32 67 52 105 63 30 9 60 19 65 24 6 4 42 18 80
30 39 12 75 26 80 30 6 4 37 16 70 26 33 10 62 21 65 25 3 3 32 14 65 24 33
10 65 22 71 27 6 4 36 15 65 24 30 9 59 19 64 24 6 4 42 18 80 30 39 12 75 26
80 30 6 4 37 16 70 26 33 10 62 21 65 25 3 3 32 14 65 24 33 10 69 24 80 32
11 7 28 13 39 13 18 0 19 -1 1 -20 -10 -11 -23 -20 -30 -20 -6 0 -22 -11 -35
-25 -13 -14 -29 -25 -36 -25 -7 0 -17 -6 -21 -13 -4 -7 -21 -21 -36 -30 -16
-10 -37 -26 -47 -35 -10 -9 -34 -28 -55 -42 -38 -26 -109 -80 -135 -102 -9 -7
-29 -22 -45 -32 -17 -11 -34 -25 -38 -33 -4 -7 -14 -13 -21 -13 -7 0 -25 -13
-41 -30 -16 -16 -33 -30 -38 -30 -5 0 -24 -12 -43 -27 -58 -49 -93 -76 -106
-84 -7 -4 -24 -17 -38 -29 -25 -21 -66 -53 -156 -120 -25 -19 -66 -51 -90 -70
-24 -19 -62 -48 -84 -65 -22 -16 -57 -45 -77 -62 -20 -18 -42 -33 -49 -33 -8
0 -14 -4 -14 -9 0 -5 -26 -28 -57 -52 -32 -24 -65 -49 -73 -56 -73 -60 -101
-83 -140 -112 -25 -19 -52 -40 -60 -47 -39 -34 -99 -82 -140 -114 -25 -18 -49
-40 -53 -47 -4 -7 -20 -19 -35 -27 -15 -8 -44 -31 -64 -50 -21 -19 -51 -43
-68 -52 -16 -10 -30 -21 -30 -25 0 -4 -26 -26 -57 -50 -104 -79 -110 -88 -118
-165 -4 -38 -11 -73 -15 -79 -4 -5 -13 -75 -20 -155 -7 -80 -16 -149 -20 -155
-4 -5 -13 -102 -19 -215 -7 -113 -16 -221 -21 -240 -9 -33 -18 -191 -56 -1020
-8 -184 -20 -344 -25 -356 -6 -12 -9 -32 -7 -45 3 -22 8 -24 71 -26 37 -2 67
1 67 5 0 5 41 6 91 4 53 -3 100 0 112 6 12 6 148 19 302 28 154 10 282 21 285
24 3 4 115 15 250 24 135 10 254 21 265 26 11 5 90 14 175 20 150 12 270 24
510 54 63 7 157 17 208 21 50 4 95 11 98 16 3 5 20 9 37 9 18 0 49 3 70 6 l37
7 0 1898 0 1899 -3610 0 -3610 0 0 -5235z"/>
<path d="M5189 7722 c-25 -21 -66 -56 -90 -78 -118 -111 -155 -144 -162 -144
-4 0 -35 -26 -69 -57 -71 -66 -83 -78 -208 -193 -51 -47 -114 -105 -140 -130
-26 -25 -89 -83 -141 -130 -51 -47 -104 -96 -119 -110 -14 -14 -77 -72 -140
-130 -107 -99 -171 -161 -196 -192 -6 -7 -33 -34 -60 -60 -62 -59 -84 -83 -84
-91 0 -24 940 -46 1358 -30 l182 6 0 241 c0 294 -19 760 -31 764 -5 2 -9 34
-10 70 -2 107 -23 295 -34 298 -5 1 -31 -14 -56 -34z"/>
<path d="M8751 6607 c-52 -34 -104 -69 -116 -77 -11 -8 -38 -26 -58 -38 -20
-13 -37 -28 -37 -32 0 -4 -8 -10 -17 -14 -21 -6 -51 -25 -71 -44 -8 -7 -31
-21 -51 -32 -21 -10 -43 -26 -50 -34 -8 -9 -20 -16 -28 -16 -7 0 -16 -7 -19
-15 -3 -8 -14 -17 -23 -20 -10 -3 -26 -13 -37 -23 -27 -23 -55 -41 -76 -48
-18 -6 -32 -33 -23 -43 3 -3 9 -1 13 5 4 6 30 16 57 24 28 7 67 21 89 31 21
10 63 26 95 35 31 9 61 19 66 24 6 4 35 15 65 25 30 10 60 21 65 25 6 4 28 13
50 20 22 7 59 21 83 32 24 10 49 17 55 15 7 -3 4 -8 -8 -13 -21 -9 -160 -106
-211 -148 -18 -14 -35 -26 -39 -26 -7 0 -58 -40 -100 -77 -11 -10 -44 -36 -72
-58 -29 -21 -53 -42 -53 -45 0 -3 -16 -14 -35 -24 -19 -11 -35 -22 -35 -26 0
-4 -29 -29 -65 -55 -36 -27 -65 -51 -65 -54 0 -4 -13 -14 -28 -23 -16 -10 -51
-38 -78 -63 -27 -24 -52 -45 -56 -45 -3 0 -30 -23 -60 -51 -29 -28 -60 -53
-70 -57 -9 -4 -47 -37 -86 -73 -38 -37 -74 -68 -80 -70 -5 -2 -49 -40 -97 -84
-48 -44 -93 -82 -100 -85 -11 -4 -72 -60 -255 -230 -8 -8 -31 -27 -50 -41 -19
-15 -51 -42 -72 -60 -20 -19 -78 -72 -129 -119 -173 -159 -254 -235 -389 -366
-74 -73 -164 -158 -199 -190 -78 -72 -971 -962 -971 -968 0 -2 -45 -50 -100
-105 -55 -55 -100 -105 -100 -111 0 -5 -4 -10 -8 -10 -11 0 -141 -133 -352
-360 -23 -25 -79 -84 -123 -132 -45 -49 -100 -108 -122 -132 -22 -25 -75 -82
-117 -126 -43 -45 -78 -84 -78 -86 0 -3 -17 -22 -37 -43 -21 -21 -65 -69 -98
-106 -73 -84 -135 -152 -169 -185 -14 -14 -26 -28 -26 -32 0 -3 -17 -23 -37
-45 -90 -94 -153 -166 -153 -173 0 -4 -11 -15 -25 -24 -14 -9 -25 -21 -25 -26
0 -5 -12 -22 -27 -37 -16 -16 -57 -62 -92 -103 -74 -86 -97 -112 -128 -144
-13 -13 -23 -28 -23 -33 0 -6 -11 -18 -25 -27 -14 -9 -25 -20 -25 -25 0 -5
-15 -25 -32 -44 -18 -19 -40 -43 -49 -54 -24 -30 -234 -288 -250 -308 -8 -9
-24 -27 -36 -40 -13 -12 -23 -27 -23 -33 0 -6 -9 -16 -20 -22 -11 -6 -20 -17
-20 -25 0 -8 -9 -19 -20 -25 -11 -6 -20 -17 -20 -25 0 -8 -9 -19 -20 -25 -11
-6 -20 -16 -20 -23 0 -7 -8 -20 -17 -29 -10 -9 -27 -29 -38 -43 -11 -15 -32
-42 -47 -60 -16 -18 -28 -37 -28 -42 0 -10 -100 -63 -118 -63 -6 0 -35 -11
-64 -24 -29 -13 -73 -31 -98 -39 -25 -8 -58 -22 -75 -31 -16 -9 -37 -16 -45
-16 -8 0 -28 -8 -45 -18 -16 -10 -58 -26 -92 -37 -35 -10 -63 -21 -63 -25 0
-4 -21 -13 -48 -19 -26 -7 -56 -18 -67 -25 -11 -7 -45 -21 -75 -31 -30 -9 -64
-23 -75 -30 -11 -6 -46 -20 -77 -30 -32 -10 -58 -21 -58 -24 0 -4 -21 -13 -47
-20 -27 -6 -70 -23 -98 -36 l-50 -25 3598 0 3597 0 0 3335 c0 1834 -1 3335 -2
3335 -2 0 -45 -28 -97 -63z"/>
<path d="M7090 5899 c-96 -5 -207 -9 -247 -8 -40 0 -80 -5 -90 -10 -10 -5
-130 -14 -266 -20 -137 -5 -251 -12 -254 -14 -2 -3 -9 -83 -15 -179 -7 -95
-14 -175 -18 -178 -4 -3 -12 -97 -20 -210 -7 -113 -16 -209 -20 -215 -4 -5
-13 -99 -20 -208 -7 -109 -17 -200 -22 -203 -9 -6 -11 -124 -2 -124 5 0 261
257 687 688 23 24 50 47 60 53 9 5 17 13 17 17 0 5 133 142 295 306 162 164
295 302 295 307 0 10 -126 9 -380 -2z"/>
</g>
</svg>
