<?xml version="1.0" encoding="UTF-8" standalone="no"?>
<!-- Created with Inkscape (http://www.inkscape.org/) -->

<svg
   xmlns:dc="http://purl.org/dc/elements/1.1/"
   xmlns:cc="http://creativecommons.org/ns#"
   xmlns:rdf="http://www.w3.org/1999/02/22-rdf-syntax-ns#"
   xmlns:svg="http://www.w3.org/2000/svg"
   xmlns="http://www.w3.org/2000/svg"
   xmlns:sodipodi="http://sodipodi.sourceforge.net/DTD/sodipodi-0.dtd"
   xmlns:inkscape="http://www.inkscape.org/namespaces/inkscape"
   width="297.84241mm"
   height="276.49695mm"
   viewBox="0 0 297.84241 276.49695"
   version="1.1"
   id="svg8"
   sodipodi:docname="trying2.svg"
   inkscape:version="0.92.2 (unknown)">
  <defs
     id="defs2">
    <inkscape:path-effect
       end_linecap_type="zerowidth"
       miter_limit="4"
       linejoin_type="extrp_arc"
       start_linecap_type="zerowidth"
       interpolator_beta="0.2"
       interpolator_type="CubicBezierJohan"
       sort_points="true"
       offset_points="30.41683,1.0399069"
       is_visible="true"
       id="path-effect101"
       effect="powerstroke" />
    <inkscape:path-effect
       is_visible="true"
       id="path-effect99"
       effect="spiro" />
    <inkscape:path-effect
       end_linecap_type="zerowidth"
       miter_limit="4"
       linejoin_type="extrp_arc"
       start_linecap_type="zerowidth"
       interpolator_beta="0.2"
       interpolator_type="CubicBezierJohan"
       sort_points="true"
       offset_points="0.3841578,-1.3032384"
       is_visible="true"
       id="path-effect95"
       effect="powerstroke" />
    <inkscape:path-effect
       is_visible="true"
       id="path-effect93"
       effect="spiro" />
    <inkscape:path-effect
       fuse_tolerance="0"
       vertical_pattern="false"
       prop_units="false"
       tang_offset="0"
       normal_offset="0"
       spacing="0"
       scale_y_rel="false"
       prop_scale="0.26458334"
       copytype="single_stretched"
       pattern="m 26.488489,-11.709067 c 0,-2.760001 2.24,-5.000001 5,-5.000001 2.76,0 5,2.24 5,5.000001 0,2.76 -2.24,5 -5,5 -2.76,0 -5,-2.24 -5,-5 z"
       is_visible="true"
       id="path-effect89"
       effect="skeletal" />
    <inkscape:path-effect
       only_selected="false"
       apply_with_weight="true"
       apply_no_weight="true"
       helper_size="0"
       steps="2"
       weight="33.333333"
       is_visible="true"
       id="path-effect87"
       effect="bspline" />
    <inkscape:path-effect
       end_linecap_type="zerowidth"
       miter_limit="4"
       linejoin_type="extrp_arc"
       start_linecap_type="zerowidth"
       interpolator_beta="0.2"
       interpolator_type="CubicBezierJohan"
       sort_points="true"
       offset_points="126,0.13229166"
       is_visible="true"
       id="path-effect83"
       effect="powerstroke" />
    <inkscape:path-effect
       is_visible="true"
       id="path-effect81"
       effect="spiro" />
    <inkscape:path-effect
       effect="powerstroke"
       id="path-effect38"
       is_visible="true"
       offset_points="30.41683,1.0399069"
       sort_points="true"
       interpolator_type="CubicBezierJohan"
       interpolator_beta="0.2"
       start_linecap_type="zerowidth"
       linejoin_type="extrp_arc"
       miter_limit="4"
       end_linecap_type="zerowidth" />
    <inkscape:path-effect
       effect="spiro"
       id="path-effect36"
       is_visible="true" />
    <inkscape:path-effect
       effect="powerstroke"
       id="path-effect28"
       is_visible="true"
       offset_points="0.3841578,-1.3032384"
       sort_points="true"
       interpolator_type="CubicBezierJohan"
       interpolator_beta="0.2"
       start_linecap_type="zerowidth"
       linejoin_type="extrp_arc"
       miter_limit="4"
       end_linecap_type="zerowidth" />
    <inkscape:path-effect
       effect="spiro"
       id="path-effect26"
       is_visible="true" />
    <inkscape:path-effect
       effect="skeletal"
       id="path-effect22"
       is_visible="true"
       pattern="m 24.190476,-8.9851187 c 0,-2.7600003 2.24,-5.0000003 5,-5.0000003 2.76,0 5,2.24 5,5.0000003 0,2.7600004 -2.24,5.0000004 -5,5.0000004 -2.76,0 -5,-2.24 -5,-5.0000004 z"
       copytype="single_stretched"
       prop_scale="0.26458334"
       scale_y_rel="false"
       spacing="0"
       normal_offset="0"
       tang_offset="0"
       prop_units="false"
       vertical_pattern="false"
       fuse_tolerance="0" />
    <inkscape:path-effect
       effect="bspline"
       id="path-effect20"
       is_visible="true"
       weight="33.333333"
       steps="2"
       helper_size="0"
       apply_no_weight="true"
       apply_with_weight="true"
       only_selected="false" />
    <inkscape:path-effect
       effect="powerstroke"
       id="path-effect16"
       is_visible="true"
       offset_points="126,0.13229166"
       sort_points="true"
       interpolator_type="CubicBezierJohan"
       interpolator_beta="0.2"
       start_linecap_type="zerowidth"
       linejoin_type="extrp_arc"
       miter_limit="4"
       end_linecap_type="zerowidth" />
    <inkscape:path-effect
       effect="spiro"
       id="path-effect14"
       is_visible="true" />
  </defs>
  <sodipodi:namedview
     id="base"
     pagecolor="#ffffff"
     bordercolor="#666666"
     borderopacity="1.0"
     inkscape:pageopacity="0.0"
     inkscape:pageshadow="2"
     inkscape:zoom="0.57044143"
     inkscape:cx="558.50909"
     inkscape:cy="517.3663"
     inkscape:document-units="in"
     inkscape:current-layer="layer1"
     showgrid="false"
     inkscape:window-width="1301"
     inkscape:window-height="744"
     inkscape:window-x="65"
     inkscape:window-y="24"
     inkscape:window-maximized="1"
     fit-margin-top="0"
     fit-margin-left="0"
     fit-margin-right="0"
     fit-margin-bottom="0" />
  <metadata
     id="metadata5">
    <rdf:RDF>
      <cc:Work
         rdf:about="">
        <dc:format>image/svg+xml</dc:format>
        <dc:type
           rdf:resource="http://purl.org/dc/dcmitype/StillImage" />
        <dc:title></dc:title>
      </cc:Work>
    </rdf:RDF>
  </metadata>
  <g
     inkscape:label="Layer 1"
     inkscape:groupmode="layer"
     id="layer1"
     transform="translate(-10.747016,-44.711013)">
    <path
       style="fill:#0000ff;fill-rule:nonzero;stroke:none;stroke-width:0.26458332px;stroke-linecap:butt;stroke-linejoin:miter;stroke-opacity:1"
       d="m 36.66369,117.08334 c 13.403012,1.06495 27.559354,-2.28281 39.44439,-9.9976 11.312215,-7.342977 20.477941,-18.637359 25.18977,-31.957678 -0.0232,-0.142372 -0.009,-0.290944 0.0381,-0.430181 0.0464,-0.136364 0.12502,-0.263713 0.23148,-0.365033 0.20668,-0.196709 0.51455,-0.292035 0.80674,-0.239473 0.28126,0.0506 0.54103,0.237532 0.67976,0.499218 0.13403,0.252806 0.15203,0.570134 0.0412,0.844132 -0.10743,0.265505 -0.33393,0.485427 -0.61131,0.585951 -0.26948,0.09766 -0.58269,0.08118 -0.84693,-0.04894 -0.2573,-0.126706 -0.46478,-0.35926 -0.56321,-0.636383 -0.0961,-0.270398 -0.0874,-0.580023 0.0262,-0.85083 0.11107,-0.264703 0.32109,-0.489881 0.58282,-0.62227 0.25624,-0.12961 0.55979,-0.169566 0.84671,-0.11033 0.2813,0.05807 0.54479,0.210709 0.73968,0.429063 0.19131,0.214346 0.31573,0.490545 0.35175,0.780725 0.0354,0.28519 -0.0144,0.582499 -0.14103,0.845792 -0.1246,0.259028 -0.3228,0.484299 -0.56638,0.645262 -0.23988,0.158512 -0.5228,0.254451 -0.81368,0.277416 -0.2867,0.02263 -0.58035,-0.02536 -0.84975,-0.137046 -0.53119,-0.220367 -0.95157,-0.689073 -1.14289,-1.240436 -0.188732,-0.543879 -0.159403,-1.158566 0.055,-1.701427 0.21173,-0.536055 0.59728,-1.000451 1.07322,-1.338666 0.47038,-0.334267 1.02522,-0.547079 1.60056,-0.648446 1.13915,-0.201056 2.3151,0.03084 3.43068,0.390696 1.10025,0.354906 2.16772,0.833755 3.29742,1.14132 4.66985,6.25746 9.96372,12.242617 15.93876,17.333957 0,0 2.3e-4,1.98e-4 2.3e-4,1.98e-4 5.94801,5.068262 12.58063,9.259029 19.95631,11.946939 7.32261,2.66877 15.32034,3.78607 23.11155,2.68266 7.71944,-1.09326 15.22907,-4.43125 20.91026,-9.876991 5.63002,-5.396693 9.37077,-12.910748 9.76126,-20.771544 l 1e-5,-1.57e-4 c 0.387,-7.791434 -2.66093,-15.834491 -8.52597,-21.084574 -2.90829,-2.603615 -6.4674,-4.5135 -10.29385,-5.429707 -3.79726,-0.909215 -7.85256,-0.830825 -11.6188,0.307401 -3.73874,1.129925 -7.1806,3.309537 -9.76141,6.279153 -2.5628,2.948921 -4.26062,6.673221 -4.73266,10.579195 -0.50831,3.803691 0.18137,7.783709 2.01915,11.182506 1.82596,3.376932 4.78569,6.156216 8.32438,7.707863 3.51692,1.542079 7.58717,1.849425 11.29858,0.774226 3.68965,-1.068939 6.99034,-3.508949 9.04377,-6.782396 2.04189,-3.25508 2.81721,-7.310173 2.04317,-11.096349 -0.76986,-3.765709 -3.07971,-7.217539 -6.32533,-9.315722 -3.22888,-2.087334 -7.34842,-2.790528 -11.08876,-1.816718 -3.72202,0.969091 -7.00226,3.601565 -8.69805,7.075121 -1.68782,3.457319 -1.75481,7.690559 -0.10429,11.186355 1.64317,3.480153 4.97208,6.142372 8.7605,6.914499 1.88869,0.384925 3.86708,0.28943 5.72389,-0.236184 1.85318,-0.524586 3.58586,-1.477885 4.98462,-2.809762 1.39627,-1.329513 2.43492,-3.020244 3.03523,-4.854408 0.59922,-1.830864 0.76182,-3.805295 0.40568,-5.703977 -0.35558,-1.895659 -1.22786,-3.682076 -2.46488,-5.16364 -1.23487,-1.478988 -2.83385,-2.65478 -4.64445,-3.329531 -1.80784,-0.673705 -3.79348,-0.828944 -5.69578,-0.501988 -1.89932,0.326461 -3.71645,1.133828 -5.18807,2.386671 -1.4695,1.251046 -2.55785,2.923712 -3.16858,4.754956 -0.6098,1.828439 -0.74369,3.816077 -0.30334,5.698408 0.4398,1.87988 1.44811,3.60643 2.8196,4.965068 1.36954,1.356696 3.10223,2.347356 4.99242,2.754819 l 0.0259,-0.09202 c -1.25299,-0.434986 -2.27258,-1.486589 -2.6932,-2.748734 -0.41951,-1.258865 -0.24299,-2.699952 0.44854,-3.836795 0.68989,-1.134149 1.87495,-1.95168 3.17861,-2.219918 1.30086,-0.267662 2.70217,0.0081 3.82183,0.72839 1.1175,0.718892 1.9469,1.868243 2.30386,3.151234 0.35635,1.280836 0.2446,2.683652 -0.28596,3.905617 -0.52977,1.220126 -1.4695,2.254969 -2.62137,2.925197 -1.15036,0.669354 -2.50526,0.975987 -3.83602,0.895493 -1.32927,-0.0804 -2.63066,-0.543077 -3.7307,-1.297274 -1.09905,-0.753534 -1.99659,-1.79382 -2.60803,-2.979861 -1.22222,-2.369919 -1.25375,-5.275351 -0.28491,-7.765532 0.96828,-2.488713 2.87814,-4.561136 5.17328,-5.936095 2.29428,-1.374441 4.95546,-2.077496 7.62855,-2.256629 5.34793,-0.35647 10.60353,1.312526 15.71146,2.99121 5.10385,1.677342 10.3571,3.405818 15.74008,3.151805 2.69288,-0.126853 5.3893,-0.76725 7.74518,-2.085632 2.35672,-1.318851 4.35661,-3.342137 5.43526,-5.821918 1.07921,-2.481069 1.1792,-5.419892 0.0568,-7.885387 -0.56138,-1.233655 -1.41733,-2.335865 -2.49254,-3.161418 -1.07619,-0.826304 -2.37125,-1.370839 -3.71849,-1.532003 l -0.002,0.14719 c -0.0114,0.0013 -0.0203,-0.0024 -0.0256,-0.0063 -0.005,-0.0038 -0.0114,-0.01081 -0.0138,-0.02196 -0.002,-0.01081 2.9e-4,-0.01965 0.003,-0.0253 0.003,-0.0057 0.009,-0.01229 0.0193,-0.016 0.01,-0.0036 0.0187,-0.0026 0.0247,-4.87e-4 0.006,0.0021 0.0132,0.0067 0.0185,0.01557 0.005,0.0086 0.006,0.01704 0.005,0.02315 -7.6e-4,0.0061 -0.004,0.01378 -0.0106,0.02068 -0.007,0.0067 -0.0143,0.0095 -0.0203,0.01033 -0.006,8.33e-4 -0.0136,1.97e-4 -0.0218,-0.0043 -0.008,-0.0044 -0.0126,-0.01039 -0.0151,-0.01556 -0.002,-0.0052 -0.004,-0.0123 -0.003,-0.02092 0.001,-0.0084 0.005,-0.01448 0.009,-0.01846 0.004,-0.004 0.009,-0.0078 0.0175,-0.0095 0.008,-0.0017 0.0144,-6.51e-4 0.0193,0.0012 0.005,0.0018 0.0103,0.0052 0.0149,0.01134 0.004,0.0059 0.006,0.0119 0.007,0.01679 5.1e-4,0.0049 -1.1e-4,0.01081 -0.003,0.01713 -0.003,0.0061 -0.007,0.01027 -0.0108,0.01287 -0.004,0.0026 -0.009,0.0048 -0.0152,0.0053 -0.006,4.91e-4 -0.0113,-7.03e-4 -0.0152,-0.0024 -0.004,-0.0017 -0.008,-0.0045 -0.0115,-0.0091 -0.003,-0.0044 -0.005,-0.0089 -0.006,-0.01264 -7.2e-4,-0.0038 -7.3e-4,-0.0082 7.5e-4,-0.01314 0.003,-0.0087 0.008,-0.01456 0.0155,-0.01752 0.007,-0.003 0.0143,-0.0026 0.0203,4.32e-4 0.006,0.003 0.01,0.0074 0.0115,0.01273 0.002,0.0053 0.001,0.0098 -4e-4,0.01378 -0.001,0.0027 -1.4e-4,0.0023 -9.8e-4,0.003 -5.8e-4,6.5e-4 0.001,8.98e-4 0.002,0.0014 4.8e-4,5.92e-4 0.003,0.0026 0.004,0.0043 0.001,0.0022 0.002,0.0055 0.002,0.0093 -1.7e-4,0.0038 -0.001,0.0085 -0.004,0.01296 -0.003,0.0045 -0.007,0.0091 -0.0122,0.01283 -0.0104,0.0075 -0.0281,0.01227 -0.0472,0.0091 -0.0192,-0.0032 -0.0405,-0.01389 -0.0593,-0.03183 -0.0189,-0.01805 -0.035,-0.04284 -0.0476,-0.07288 -0.0275,-0.06451 -0.0336,-0.134141 -0.0483,-0.229778 l -0.0231,-0.149576 -0.13334,0.07256 c 0,0 -4.7e-4,2.57e-4 -4.7e-4,2.57e-4 -11.54612,6.283191 -23.04661,13.121042 -33.40175,21.16899 -10.39094,8.075771 -19.60703,17.354096 -26.5411,28.477917 -6.97492,11.188978 -11.37139,24.074528 -11.53272,37.162348 -0.16264,13.19452 4.17379,26.52381 12.85018,36.32681 4.37456,4.94287 9.78837,8.94024 15.80249,11.52563 6.06717,2.6082 12.73587,3.76233 19.2605,3.22449 6.58531,-0.54283 13.00229,-2.82171 18.33682,-6.61742 5.38695,-3.83299 9.63836,-9.21045 11.99536,-15.31887 2.38148,-6.17187 2.79853,-13.0633 1.09132,-19.38439 -1.72598,-6.39057 -5.63135,-12.14752 -10.93346,-15.98931 -5.36387,-3.88653 -12.12202,-5.75874 -18.63634,-5.09934 -6.59481,0.66754 -12.86066,3.94717 -17.04887,8.97982 l -0.0225,0.0271 -0.004,0.035 c 0,0 -4e-5,3.3e-4 -4e-5,3.3e-4 -2.14407,18.00958 3.38713,36.71824 14.98857,50.3454 11.76364,13.81767 29.61781,22.11255 47.50877,22.00188 18.15743,-0.11233 35.95218,-8.96162 46.70424,-23.25389 0,0 1.9e-4,-2.6e-4 1.9e-4,-2.6e-4 5.4367,-7.22686 8.98843,-15.77896 10.48016,-24.62577 0,0 5e-5,-3.1e-4 5e-5,-3.1e-4 1.50315,-8.91487 0.91631,-18.12949 -1.93058,-26.64599 0,0 -10e-5,-3e-4 -10e-5,-3e-4 -2.86815,-8.57996 -8.01868,-16.30357 -14.60433,-22.39327 0,0 -2.3e-4,-2.2e-4 -2.3e-4,-2.2e-4 -6.63951,-6.13942 -14.73711,-10.620461 -23.47429,-12.691033 -8.80629,-2.08695 -18.10324,-1.647551 -26.6881,0.94422 -8.65931,2.614248 -16.5964,7.416393 -22.65082,14.046423 0,0 -2.1e-4,2.2e-4 -2.1e-4,2.2e-4 -6.10504,6.68554 -10.12637,15.10596 -11.82102,23.90907 -1.71034,8.88462 -1.05413,18.16055 2.20335,26.52637 3.28642,8.44012 9.17386,15.71141 16.43809,20.95942 0,0 2.4e-4,1.8e-4 2.4e-4,1.8e-4 7.33605,5.29982 16.07621,8.54068 25.04548,8.9013 0,0 2.9e-4,1e-5 2.9e-4,1e-5 9.05499,0.36041 18.0594,-2.27309 25.65895,-7.01705 7.67999,-4.79416 13.93033,-11.7417 17.45336,-19.99738 0,0 1.2e-4,-2.7e-4 1.2e-4,-2.7e-4 3.55843,-8.3388 4.1581,-17.72642 2.21731,-26.46805 -1.96286,-8.84106 -6.52007,-17.02633 -13.2732,-22.93703 -6.82582,-5.97432 -15.64032,-9.33202 -24.5662,-9.98633 -9.03511,-0.66232 -18.18859,1.43879 -25.67354,6.38694 -7.57126,5.00521 -13.0355,12.72513 -15.82268,21.22419 -2.82401,8.6114 -2.90844,18.02568 0.2882,26.40726 3.23625,8.48545 9.70808,15.41801 17.49715,19.80223 7.90069,4.44704 17.15803,6.28299 25.96018,4.56708 8.91981,-1.73884 16.79312,-7.0726 22.27254,-14.12521 5.56487,-7.16261 8.67339,-16.09773 8.05866,-25.04127 -0.62364,-9.07305 -5.0949,-17.49577 -11.5598,-23.64566 -6.57519,-6.25481 -15.21047,-10.17351 -24.17099,-10.23928 -9.10174,-0.0668 -17.79788,3.90939 -24.26846,10.03946 0,0 -1.8e-4,1.6e-4 -1.8e-4,1.6e-4 -6.50928,6.16683 -10.78315,14.50975 -11.1942,23.33599 -2.52315,-3.01296 -4.13569,-6.68083 -4.69859,-10.42962 -0.60198,-4.009 -0.009,-8.09689 1.56074,-11.65669 1.63916,-3.71789 4.33081,-6.85147 7.55287,-9.01471 3.3829,-2.27122 7.33533,-3.47341 11.20311,-3.57776 0,0 -0.004,-0.13224 -0.004,-0.13224 0,0 -0.004,-0.13224 -0.004,-0.13224 -3.91659,0.10566 -7.91791,1.32277 -11.34337,3.62267 -3.26266,2.1906 -5.98748,5.36301 -7.64712,9.12775 -1.58908,3.60469 -2.18946,7.74305 -1.5797,11.80235 0.58637,3.90354 2.29629,7.71936 4.97739,10.81723 0.0729,0.0843 0.1465,0.16791 0.22076,0.25098 0.003,-0.11079 0.006,-0.22156 0.01,-0.33232 0.31385,-8.87203 4.57674,-17.28623 11.12579,-23.49093 0,0 1.8e-4,-1.7e-4 1.8e-4,-1.7e-4 6.42871,-6.09061 15.06167,-10.03411 24.0861,-9.96802 8.88538,0.0651 17.45894,3.95158 23.99274,10.16678 6.42434,6.11108 10.86096,14.47489 11.47971,23.47414 0.60997,8.87175 -2.47341,17.74494 -8.00397,24.86369 -5.44571,7.00954 -13.26623,12.30447 -22.11667,14.02999 -8.73456,1.70293 -17.92969,-0.1176 -25.78338,-4.53796 -7.74286,-4.35797 -14.17029,-11.24612 -17.38274,-19.66853 -3.17342,-8.3201 -3.09221,-17.67308 -0.28472,-26.23481 2.7709,-8.45015 8.20191,-16.12002 15.71949,-21.09003 7.43255,-4.91378 16.52833,-7.00408 25.51299,-6.3457 8.87615,0.65043 17.63651,3.98908 24.41655,9.923 6.70839,5.87123 11.24018,14.00653 13.19271,22.79988 1.93059,8.69454 1.33322,18.02747 -2.20221,26.31303 0,0 -1.1e-4,2.6e-4 -1.1e-4,2.6e-4 -3.50054,8.20362 -9.71378,15.1127 -17.35376,19.8822 -7.56004,4.71959 -16.51468,7.33756 -25.51467,6.97961 5e-5,0 -2.4e-4,-1e-5 -2.4e-4,-1e-5 -8.9155,-0.35819 -17.60857,-3.57984 -24.90819,-8.853 0,0 -2.4e-4,-1.8e-4 -2.4e-4,-1.8e-4 -7.22821,-5.22164 -13.0839,-12.45487 -16.35169,-20.84639 -3.23925,-8.3182 -3.8935,-17.54584 -2.19161,-26.38804 1.68628,-8.76113 5.68781,-17.13887 11.75947,-23.78829 0,0 2.1e-4,-2.2e-4 2.1e-4,-2.2e-4 6.0217,-6.59462 13.91894,-11.374157 22.53857,-13.976737 8.54557,-2.580217 17.79803,-3.017147 26.55926,-0.941185 8.69297,2.059789 16.75322,6.518852 23.36398,12.631272 0,0 2.3e-4,2.1e-4 2.3e-4,2.1e-4 6.55717,6.06296 11.68415,13.75166 14.53877,22.29014 0,0 10e-5,3e-4 10e-5,3e-4 2.83359,8.47577 3.41884,17.6495 1.92224,26.52744 0,0 -5e-5,3.1e-4 -5e-5,3.1e-4 -1.48524,8.81021 -5.02184,17.32561 -10.43366,24.51994 0,0 -1.9e-4,2.5e-4 -1.9e-4,2.5e-4 -10.70489,14.23062 -28.42737,23.04609 -46.51097,23.15862 -17.81797,0.11087 -35.60536,-8.15099 -47.32467,-21.91556 -11.55759,-13.57463 -17.07079,-32.21629 -14.93504,-50.16182 0,0 4e-5,-3.3e-4 4e-5,-3.3e-4 l -0.0267,0.062 c 4.14681,-4.98395 10.35487,-8.2352 16.88983,-8.89738 6.45507,-0.65409 13.15629,1.2007 18.4755,5.05401 5.25788,3.80888 9.13374,9.51962 10.84702,15.86047 1.69464,6.27182 1.28207,13.11321 -1.0818,19.24145 -2.33953,6.06516 -6.56148,11.40758 -11.91307,15.21633 -5.29947,3.77165 -11.67698,6.03791 -18.2236,6.57831 -6.48624,0.53541 -13.11849,-0.61113 -19.15404,-3.20491 -5.98275,-2.57109 -11.37064,-6.54783 -15.72528,-11.46702 -8.6361,-9.75636 -12.95849,-23.03035 -12.79719,-36.17811 0.15999,-13.04123 4.54051,-25.88876 11.49774,-37.050842 6.91678,-11.096798 16.11294,-20.357368 26.48967,-28.422589 10.34145,-8.037801 21.83005,-14.869554 33.37206,-21.150955 0,0 4.7e-4,-2.57e-4 4.7e-4,-2.57e-4 l -0.15647,-0.07701 c 0.0124,0.07591 0.0235,0.184397 0.0655,0.28034 0.022,0.04981 0.054,0.10035 0.0994,0.141887 0.0451,0.04127 0.10439,0.07376 0.17192,0.08304 0.067,0.0092 0.14165,-0.0057 0.20071,-0.05157 0.0291,-0.02282 0.0536,-0.0527 0.0699,-0.08774 0.0162,-0.03483 0.024,-0.07437 0.0207,-0.114296 -0.003,-0.03969 -0.0176,-0.07909 -0.0426,-0.112114 -0.0249,-0.03284 -0.06,-0.05857 -0.10076,-0.07155 -0.0405,-0.01291 -0.0857,-0.01267 -0.12703,0.0026 -0.0412,0.01519 -0.0771,0.04497 -0.0992,0.08462 -0.0206,0.03778 -0.0268,0.08267 -0.0157,0.125013 0.0111,0.04215 0.0393,0.07963 0.0786,0.101465 0.0392,0.02174 0.0873,0.02643 0.13074,0.01074 0.0432,-0.01562 0.0787,-0.05077 0.0937,-0.09561 0.008,-0.02295 0.009,-0.04689 0.006,-0.06952 -0.003,-0.02261 -0.012,-0.04529 -0.0265,-0.06528 -0.0146,-0.0201 -0.0337,-0.03549 -0.0547,-0.04562 -0.0209,-0.01012 -0.0451,-0.01567 -0.0704,-0.01431 -0.0254,0.0014 -0.0491,0.0097 -0.069,0.02244 -0.0199,0.01277 -0.0375,0.03104 -0.0492,0.0541 -0.0118,0.0232 -0.0162,0.04848 -0.0146,0.07239 0.002,0.02389 0.01,0.04854 0.025,0.07005 0.0155,0.02166 0.0366,0.03717 0.0591,0.04625 0.0225,0.0091 0.0487,0.01261 0.0752,0.0074 0.0267,-0.0052 0.0498,-0.01855 0.0672,-0.03585 0.0174,-0.01729 0.0311,-0.04047 0.0362,-0.06755 0.005,-0.02729 9.1e-4,-0.05412 -0.009,-0.07671 -0.0102,-0.02258 -0.0276,-0.04373 -0.052,-0.05777 -0.0246,-0.01415 -0.0519,-0.01847 -0.0767,-0.0156 -0.0248,0.0029 -0.0506,0.01333 -0.0714,0.03311 -0.0209,0.01994 -0.0325,0.04555 -0.0361,0.07047 -0.004,0.02492 -1e-5,0.05297 0.0146,0.0782 0.0147,0.02545 0.0376,0.04259 0.0613,0.05153 0.0237,0.0089 0.0523,0.01117 0.0804,0.0014 0.0283,-0.0098 0.0493,-0.0297 0.0621,-0.05172 0.0128,-0.02203 0.0196,-0.05035 0.0139,-0.07992 -0.006,-0.02985 -0.0232,-0.05355 -0.0437,-0.06889 -0.0204,-0.01535 -0.0482,-0.02549 -0.0787,-0.02246 -0.0669,0.0067 -0.11144,0.07236 -0.0928,0.136984 0.0303,0.0032 0.0606,0.0066 0.0908,0.01021 1.31979,0.157011 2.59058,0.689953 3.64749,1.500362 1.05597,0.809692 1.89817,1.892196 2.45111,3.105203 1.10452,2.424152 1.00914,5.320892 -0.0554,7.770374 -1.06388,2.448007 -3.03977,4.450584 -5.3739,5.757791 -2.33324,1.306709 -5.00788,1.943926 -7.68437,2.07088 -5.35393,0.253515 -10.58351,-1.464638 -15.69242,-3.142721 -5.10481,-1.676739 -10.38434,-3.354197 -15.76141,-2.994905 -2.68927,0.181097 -5.37077,0.8895 -7.68519,2.277034 -2.31527,1.388037 -4.24503,3.481514 -5.22394,5.999973 -0.97943,2.519805 -0.94822,5.462356 0.29261,7.866417 0.62103,1.202746 1.53234,2.257895 2.64891,3.022368 1.1176,0.765173 2.43974,1.234467 3.79108,1.315325 1.35284,0.08095 2.73024,-0.231506 3.90036,-0.913375 1.17164,-0.682752 2.1274,-1.736301 2.66616,-2.979357 0.53957,-1.244915 0.65267,-2.673659 0.28857,-3.979071 -0.36473,-1.307652 -1.21064,-2.478658 -2.35121,-3.211353 -1.14277,-0.734105 -2.57211,-1.014653 -3.90012,-0.740515 -1.33084,0.274724 -2.53982,1.109655 -3.24395,2.268885 -0.70579,1.161967 -0.88531,2.633583 -0.45559,3.920311 0.36768,1.100933 1.18053,2.044356 2.20773,2.573392 -1.64782,-0.466114 -3.15479,-1.379383 -4.37304,-2.585667 -1.36009,-1.346733 -2.3594,-3.057659 -2.79533,-4.9191 -0.43655,-1.864202 -0.30469,-3.834414 0.29977,-5.64819 0.60538,-1.816548 1.68433,-3.475074 3.14015,-4.71503 1.45804,-1.241839 3.25977,-2.043243 5.14438,-2.367606 1.88772,-0.324882 3.85746,-0.171095 5.6499,0.496418 1.79547,0.668659 3.38241,1.834664 4.60866,3.30267 1.22838,1.470555 2.0943,3.243394 2.44744,5.123704 0.35374,1.883606 0.19304,3.843607 -0.40166,5.662016 -0.59583,1.821837 -1.6269,3.500743 -3.01242,4.820604 -1.38807,1.322292 -3.10851,2.269617 -4.94966,2.791235 -1.84475,0.522637 -3.81,0.6178 -5.6855,0.235993 -3.76329,-0.766147 -7.0725,-3.410871 -8.70614,-6.8689 -1.641,-3.473654 -1.57572,-7.682481 0.10152,-11.120016 1.6852,-3.453768 4.94697,-6.073059 8.64854,-7.037679 3.72006,-0.969387 7.81916,-0.270936 11.03226,1.805222 3.22986,2.087011 5.52996,5.522113 6.29706,9.270247 0.77126,3.768461 4.2e-4,7.806306 -2.03204,11.047876 -2.04401,3.259967 -5.33091,5.691183 -9.00573,6.756667 -3.69677,1.071806 -7.75223,0.766669 -11.25678,-0.769111 -3.52638,-1.545364 -6.47692,-4.314569 -8.2976,-7.680074 -1.83246,-3.387275 -2.52105,-7.35495 -2.01499,-11.147786 0.46991,-3.894995 2.16219,-7.609546 4.71758,-10.551134 2.57344,-2.962341 6.00629,-5.13739 9.73584,-6.265352 3.75713,-1.13629 7.8034,-1.215444 11.59276,-0.308914 3.81848,0.913498 7.37095,2.818786 10.27424,5.416901 5.85426,5.239403 8.89851,13.268438 8.51286,21.047807 l -1e-5,1.57e-4 c -0.38912,7.848534 -4.12358,15.352925 -9.74616,20.743522 -5.67364,5.43956 -13.17473,8.77502 -20.88686,9.86798 -7.78379,1.10312 -15.77522,-0.0123 -23.09319,-2.67857 -7.37082,-2.685749 -13.9999,-6.873642 -19.94557,-11.939434 0,0 -2.3e-4,-1.98e-4 -2.3e-4,-1.98e-4 -5.97427,-5.0902 -11.26782,-11.074759 -15.93772,-17.332251 0,0 -0.004,-0.0049 -0.004,-0.0049 0,0 -0.006,-0.0016 -0.006,-0.0016 -1.12851,-0.305833 -2.19771,-0.784811 -3.30238,-1.140394 -1.11782,-0.35982 -2.29973,-0.592751 -3.44619,-0.389693 -0.57908,0.102745 -1.13791,0.317732 -1.61189,0.655403 -0.47958,0.341659 -0.8682,0.810665 -1.08141,1.352326 -0.21593,0.548552 -0.24498,1.16962 -0.0535,1.719392 0.1941,0.557326 0.61966,1.030909 1.15757,1.253362 0.27289,0.112425 0.5701,0.160315 0.86012,0.136781 0.29426,-0.02388 0.58021,-0.121543 0.82249,-0.282385 0.24604,-0.163336 0.44593,-0.391527 0.57137,-0.65367 0.1275,-0.266463 0.17716,-0.56701 0.14081,-0.855111 -0.037,-0.293156 -0.16321,-0.571838 -0.35682,-0.787918 -0.19723,-0.220124 -0.46346,-0.373634 -0.74743,-0.43171 -0.28966,-0.05924 -0.5957,-0.01835 -0.85383,0.112798 -0.26368,0.13396 -0.47487,0.361256 -0.58631,0.628115 -0.11401,0.27302 -0.12211,0.584753 -0.025,0.856758 0.0995,0.27878 0.30862,0.512334 0.56754,0.639361 0.26591,0.130453 0.58069,0.146511 0.85128,0.04802 0.27852,-0.101374 0.5056,-0.322512 0.61309,-0.589123 0.11094,-0.275149 0.0924,-0.593428 -0.0422,-0.846781 -0.13941,-0.262262 -0.39998,-0.449297 -0.68183,-0.499727 -0.29279,-0.05239 -0.60102,0.04339 -0.80778,0.240474 -0.10651,0.101524 -0.18509,0.229058 -0.23147,0.365555 -0.0474,0.139382 -0.0612,0.288063 -0.0379,0.430381 -4.71164,13.320154 -13.877218,24.614579 -25.189361,31.957604 -11.88498,7.71487 -26.041309,11.06267 -39.444329,9.99772 z"
       id="path12"
       inkscape:connector-curvature="0"
       inkscape:path-effect="#path-effect14;#path-effect16"
       inkscape:original-d="m 36.66369,117.08334 c 21.418915,-13.8594 43.089549,-27.970514 64.63393,-41.955364 21.54437,-13.98485 45.86137,2.51958 68.79166,3.77976 22.93029,1.26019 29.98638,-21.16693 44.97917,-31.749995 14.99279,-10.58307 -5.29141,63.247749 -7.9375,94.872019 -2.6461,31.62428 10.33161,-23.43478 15.49702,-35.15178" />
    <path
       style="fill:#e9afaf;stroke:none;stroke-width:0.26458332px;stroke-linecap:butt;stroke-linejoin:miter;stroke-opacity:1"
       d="m 67.279756,197.59227 c -0.08184,-0.0609 4.301867,-6.74383 13.108709,-18.00904 8.004347,-10.23871 22.719335,-28.2145 41.843705,-42.5947 1e-5,0 1e-5,-1e-5 1e-5,-1e-5 12.0247,-9.02964 24.00772,-16.13669 38.97716,-25.25923 4.83405,-2.948 9.97226,-6.02738 14.71035,-9.44203 1.53491,-1.10984 3.04117,-2.23639 4.32857,-3.522503 0,0 1e-5,-1.1e-5 1e-5,-1.1e-5 0.43816,-0.441061 0.83721,-0.871834 1.13627,-1.323053 0.20268,-0.33563 0.36997,-0.599139 0.37857,-0.793205 0,0 0,-7e-6 0,-7e-6 0.009,-0.08716 0.004,-0.184013 -0.0251,-0.201332 -0.0201,-0.08779 -0.194,-0.193039 -0.41913,-0.344007 -0.79333,-0.482355 -1.91017,-0.584838 -3.13138,-0.702672 -4.11071,-0.309449 -8.31543,0.450006 -12.59,1.448988 -11.91353,2.828161 -23.76695,8.345632 -33.37047,16.935592 -2.77545,2.47457 -5.34464,5.19375 -7.71752,8.11839 -6.09413,7.51115 -10.71079,16.15189 -14.16319,24.91231 -1.98577,5.0608 -3.58598,10.16011 -4.5129,15.33325 -0.34009,1.90588 -0.59216,3.78699 -0.62502,5.64536 -0.004,1.2924 0.006,2.49177 0.38229,3.47035 0,0 1e-5,1e-5 1e-5,1e-5 0.23388,0.47747 0.46633,0.92328 0.69833,0.8913 0.30303,0.17418 0.87986,-0.051 1.55596,-0.2765 0,0 2e-5,0 2e-5,0 2.33517,-0.96072 4.31369,-2.94015 6.33675,-4.87504 2.74656,-2.6742 5.29262,-5.57548 7.7369,-8.46617 2.47932,-2.93355 4.88824,-5.94024 7.22074,-8.8785 1.75309,-2.20915 3.42293,-4.3789 5.25824,-6.51063 0.53738,-0.628 1.11053,-1.28135 1.78769,-1.89345 0,0 1e-5,-1e-5 1e-5,-1e-5 0.20068,-0.18707 0.45658,-0.39542 0.78423,-0.59405 0,0 3e-5,-2e-5 3e-5,-2e-5 0.1427,-0.15162 0.52611,-0.27588 1.13934,-0.28702 0.67037,0.17508 1.08089,0.51186 1.20949,0.94116 0.1546,0.4723 0.18164,0.83147 0.14803,1.05117 -0.0447,0.96875 -0.26257,1.82893 -0.46522,2.58507 -0.89647,3.49192 -2.12575,6.89657 -3.25046,10.10698 -5.10814,14.60084 -11.05333,30.12716 -15.43723,41.64752 0,0 -1e-5,2e-5 -1e-5,2e-5 -13.71791,36.04987 -22.511053,58.06763 -22.795665,57.96013 -0.379188,-0.14322 7.811595,-22.39055 21.081825,-58.60024 0,0 0,-1e-5 0,-1e-5 4.17562,-11.39395 10.09773,-27.33291 15.02154,-41.74374 1.10341,-3.23364 2.29201,-6.58857 3.12562,-9.94055 0.18403,-0.77352 0.37362,-1.47145 0.38046,-2.09111 -0.0211,-0.17004 0.006,-0.21217 0.0156,-0.10249 0.0437,0.21783 0.275,0.36812 0.71851,0.51913 0.31645,-0.0426 0.41338,-0.0209 0.29845,-0.0211 0,0 -1e-5,1e-5 -1e-5,1e-5 -0.10147,0.0536 -0.22818,0.16918 -0.39786,0.31633 0,0 -1e-5,1e-5 -1e-5,1e-5 -0.53515,0.48189 -1.03338,1.06546 -1.56563,1.68655 -1.76828,2.07648 -3.4043,4.22911 -5.16171,6.46659 -2.32195,2.9574 -4.73104,5.99439 -7.22498,8.97297 -2.45063,2.92826 -5.03809,5.89824 -7.86637,8.67653 -1.97676,1.97714 -4.1989,4.13399 -7.09317,5.41685 0,0 -2e-5,1e-5 -2e-5,1e-5 -0.85146,0.42981 -2.00765,0.69139 -3.30313,0.38102 -1.27264,-0.48807 -2.06537,-1.45897 -2.36837,-2.46711 0,0 0,-2e-5 0,-2e-5 -0.52245,-1.50883 -0.58837,-3.01638 -0.54601,-4.38712 0.0357,-2.05313 0.29587,-4.07186 0.64959,-6.05532 0.95753,-5.39081 2.59393,-10.65996 4.62145,-15.83579 3.49968,-8.97216 8.24415,-17.84779 14.55643,-25.61846 2.45742,-3.0252 5.12331,-5.84689 8.00691,-8.42559 10.00516,-8.91972 22.25116,-14.608511 34.53945,-17.475982 4.36486,-1.034211 8.8361,-1.799769 13.36821,-1.470503 1.30794,0.06907 2.77747,0.283491 4.17956,1.03191 0.4837,0.246394 0.97164,0.662788 1.36069,1.27471 0.33721,0.609957 0.44282,1.273053 0.32954,1.900371 0,0 -1e-5,2.7e-5 -1e-5,2.7e-5 -0.15178,0.739819 -0.45299,1.329986 -0.7803,1.776418 -0.44671,0.649255 -0.95135,1.202889 -1.45388,1.693249 0,0 -2e-5,1e-5 -2e-5,1e-5 -1.46348,1.43767 -3.07402,2.64126 -4.64573,3.75846 -4.87119,3.47392 -10.07206,6.55844 -14.9158,9.47262 -15.0719,9.07442 -26.96838,15.99707 -38.99632,24.85399 0,0 -10e-6,10e-6 -10e-6,10e-6 -18.96441,13.94522 -33.980787,31.71492 -42.165137,41.6743 -9.047348,11.00954 -13.842316,17.41149 -14.007487,17.28862 z"
       id="path18"
       inkscape:connector-curvature="0"
       inkscape:path-effect="#path-effect20;#path-effect22"
       inkscape:original-d="m 67.279756,197.59227 c 15.3713,-20.66296 30.74233,-41.32566 46.113104,-61.98809 34.26961,-16.25301 68.53995,-32.50622 102.80952,-48.758933 -32.12771,3.7795 -64.25544,7.55923 -96.38393,11.33929 -9.07123,33.009913 -18.14259,66.019573 -27.214284,99.029763 14.489484,-18.01729 28.978444,-36.03399 43.467264,-54.0506 2.52011,-3.52804 5.03994,-7.05582 7.55952,-10.58333 -15.37015,40.69354 -30.74179,81.39061 -46.113094,122.08631"
       sodipodi:nodetypes="cccccccc" />
    <path
       style="fill:#008080;fill-rule:nonzero;stroke:none;stroke-width:0.26458332px;stroke-linecap:butt;stroke-linejoin:miter;stroke-opacity:1"
       d="m 98.273808,102.34227 c -3.283122,0.0821 -8.603635,0.73188 -14.640746,2.23774 -6.282129,1.56699 -10.724477,3.34341 -13.997532,4.52832 -13.422141,4.85904 -27.310291,13.38379 -38.418604,26.20912 -10.871617,12.54879 -19.758917,30.22072 -20.238399,50.0625 -0.414297,17.14419 6.016865,36.27045 20.436156,49.11113 7.835623,6.98804 18.164336,12.14667 29.468609,13.29266 10.539628,1.06849 21.949302,-1.49994 31.005765,-8.14493 8.592893,-6.30484 14.889403,-16.38732 15.968083,-27.47366 0.53215,-5.33863 -0.12392,-10.90197 -2.07971,-16.08279 -1.90553,-5.04767 -5.04727,-9.71034 -9.18517,-13.35996 -4.764987,-4.19658 -10.801169,-6.99371 -17.177931,-8.05326 -6.318193,-1.04982 -12.922321,-0.40316 -19.026528,1.72954 -12.177852,4.28406 -21.909957,14.40816 -26.965168,26.33427 -4.417017,10.41114 -5.445554,22.14871 -3.154693,33.13188 2.323159,11.13801 8.010226,21.4231 15.877819,29.38501 8.047466,8.14394 18.301051,13.82895 29.111563,16.59634 11.167663,2.85881 22.862456,2.62164 33.609778,-0.20384 22.50362,-5.94276 40.54848,-23.35635 49.06181,-43.68418 9.07739,-21.67468 7.81705,-46.17286 -0.42822,-66.39911 -3.54107,-8.72238 -8.20738,-16.40918 -14.13809,-22.56235 -6.68565,-6.93642 -14.68185,-11.52318 -22.79275,-13.37245 -10.08808,-2.29966 -19.72757,-0.27181 -26.831756,3.3817 7.101796,-3.65228 16.738916,-5.69707 26.840856,-3.42186 8.12429,1.82947 16.149,6.39421 22.87841,13.32088 5.96996,6.14497 10.68179,13.82999 14.27408,22.55978 8.30337,20.26092 9.62703,44.8446 0.5513,66.64117 -8.5108,20.43981 -26.61583,38.00925 -49.28002,44.0477 -10.816135,2.89444 -22.614644,3.19118 -33.913109,0.35404 -10.93668,-2.74629 -21.342923,-8.44666 -29.540947,-16.66499 -8.014359,-8.0342 -13.844658,-18.44771 -16.263215,-29.77042 -2.384772,-11.16455 -1.401595,-23.13394 3.059772,-33.79328 5.111068,-12.20074 15.035605,-22.66018 27.596803,-27.13882 6.284117,-2.2553 13.123337,-2.99056 19.711941,-1.95266 6.64896,1.04742 12.988065,3.91083 18.033537,8.28059 4.386798,3.79402 7.738268,8.66366 9.795718,13.96081 2.1116,5.43656 2.85825,11.28877 2.34883,16.92371 -1.08445,11.70338 -7.66498,22.33161 -16.676425,29.00433 -9.496794,7.03212 -21.450257,9.76659 -32.497214,8.69183 -11.8475,-1.15263 -22.648701,-6.50641 -30.840975,-13.7601 C 14.754815,222.93295 8.0669159,203.08124 8.4658136,185.32145 8.9274298,164.76922 18.094753,146.53376 29.259262,133.62303 c 11.425397,-13.20909 25.701615,-21.97418 39.489037,-26.96549 3.105866,-1.12439 8.409805,-2.51166 14.639516,-3.35748 6.534301,-0.88717 11.328781,-0.86882 14.885993,-0.95779 z"
       id="path24"
       inkscape:connector-curvature="0"
       inkscape:path-effect="#path-effect26;#path-effect28"
       inkscape:original-d="m 98.273808,102.34227 c -22.426321,10.70906 -45.356877,21.41838 -68.035714,32.12797 -22.6788348,10.70959 0.252251,67.2795 0.377978,100.91964 0.125728,33.64015 72.697688,-57.95661 66.523809,-53.29464 -6.173876,4.66197 -78.996759,45.1049 -64.255954,20.41072 14.740808,-24.69418 87.186773,-10.07963 124.732143,-30.99405 37.54536,-20.91442 -26.33208,-34.64808 -37.04167,-35.90774 -10.70959,-1.25965 -13.73286,-5.7959 -26.836306,3.40178"
       sodipodi:nodetypes="cssssssc" />
    <path
       style="fill:#0000ff;fill-rule:nonzero;stroke:none;stroke-width:0.26458332px;stroke-linecap:butt;stroke-linejoin:miter;stroke-opacity:1"
       d="m 301.9962,148.41461 c -13.32022,-5.47659 -30.61631,-6.3856 -46.49415,0.74908 -10.9738,4.93008 -20.54349,13.2685 -29.21667,23.68162 -8.19613,9.84037 -14.1336,19.42644 -22.22556,30.72482 -12.64847,17.67215 -28.28533,35.57606 -48.59608,46.94653 -9.61559,5.37735 -20.51714,9.38829 -32.06264,10.77055 -10.99493,1.31633 -22.67378,0.20172 -33.394875,-4.15052 -9.018097,-3.65622 -17.121193,-9.66826 -23.478076,-17.27714 -6.23845,-7.46713 -10.786786,-16.46954 -12.767529,-26.16846 -1.928723,-9.47497 -1.517319,-19.58797 1.414596,-29.10503 2.852776,-9.26018 8.091191,-17.91873 15.235046,-24.80822 6.986373,-6.7376 15.77513,-11.7513 25.34313,-14.27173 9.398368,-2.47574 19.514748,-2.5286 29.056818,-0.0193 9.40988,2.47457 18.22296,7.43801 25.23997,14.3368 6.94474,6.82774 12.09861,15.52848 14.70832,24.99044 1.16154,4.21417 1.82078,8.53885 2.41979,12.91618 0.5955,4.35167 1.13262,8.76679 2.0503,13.09985 0.91003,4.33118 2.21828,8.64089 4.30626,12.59678 2.08735,3.95467 4.98731,7.56145 8.70928,10.11216 5.77222,3.94634 13.17378,5.05629 19.9848,3.82006 6.84839,-1.24301 13.11968,-4.71142 18.35713,-9.14714 5.26241,-4.46609 9.50651,-9.84017 13.36279,-15.47274 3.87983,-5.66696 7.38152,-11.61097 11.13852,-17.23421 3.80873,-5.688 7.91564,-11.07774 12.87399,-15.56606 5.03366,-4.55648 10.93011,-8.10085 17.3456,-9.63367 6.54998,-1.56493 13.58686,-0.89117 19.21601,2.35206 2.884,1.6693 5.33661,3.97106 7.077,6.67712 1.79496,2.79091 2.81452,5.99769 2.91949,9.17792 0.11787,3.54271 -0.88976,7.03698 -2.55462,10.04625 -1.74092,3.14677 -4.19632,5.81106 -6.89726,7.97726 -5.65523,4.54957 -12.69086,7.2033 -19.28163,9.57352 -7.26839,2.61393 -14.11997,4.98776 -20.14553,9.19184 -3.25476,2.26571 -5.99649,4.90441 -8.06354,7.88311 -2.3416,3.37437 -3.70668,7.05171 -4.06937,10.62159 -0.28728,2.83447 0.0443,5.55245 0.65521,8.04185 0.12366,0.50396 0.2647,1.02134 0.42458,1.55322 0.83374,2.77365 2.07858,5.62322 3.77805,8.85442 2.33606,4.44145 6.28097,10.7697 7.79522,16.76978 1.76979,7.06275 0.75151,15.22373 -3.17763,22.419 -3.65623,6.6954 -9.5946,12.23226 -16.67874,15.9225 -6.99361,3.64306 -14.85025,5.41878 -22.66314,5.76522 -8.11246,0.35971 -16.08904,-0.79284 -23.47241,-2.57514 -35.62394,-8.78954 -62.9347,-33.86002 -76.65038,-61.40316 -18.481947,-37.11451 -12.79938,-74.93744 -2.77802,-98.26583 -10.01589,23.31564 -15.774329,61.13861 2.63628,98.33619 13.66393,27.60719 40.95552,52.8303 76.68531,61.76267 7.38067,1.88455 15.40282,3.16184 23.60783,2.91465 7.90184,-0.23806 15.92832,-1.91932 23.14074,-5.54525 7.30574,-3.67287 13.53452,-9.28769 17.43943,-16.20831 4.19605,-7.4367 5.41485,-15.9998 3.62367,-23.54023 -1.49089,-6.32121 -5.53428,-13.01824 -7.7214,-17.28047 -1.63367,-3.18375 -2.79529,-5.9082 -3.57419,-8.52191 -0.14894,-0.4998 -0.28015,-0.9837 -0.39531,-1.45301 -0.56976,-2.32186 -0.86453,-4.79545 -0.60874,-7.33747 0.32055,-3.19432 1.54108,-6.54469 3.69044,-9.66313 1.89811,-2.7539 4.44571,-5.2375 7.52791,-7.40321 5.75731,-4.03572 12.32963,-6.34109 19.65837,-8.99834 6.55796,-2.37777 13.88219,-5.14294 19.80773,-9.93851 2.83692,-2.30258 5.45101,-5.16131 7.31021,-8.57248 1.77807,-3.2623 2.86423,-7.08151 2.70801,-10.99124 -0.1411,-3.51054 -1.28959,-7.00918 -3.26417,-10.02949 -1.91487,-2.92896 -4.58443,-5.38813 -7.69045,-7.15406 -6.05392,-3.4569 -13.51728,-4.10919 -20.37259,-2.4426 -6.71598,1.63274 -12.81438,5.35301 -17.9596,10.04835 -5.0658,4.62289 -9.22536,10.13934 -13.03529,15.8798 -3.77419,5.67407 -7.2612,11.62014 -11.09528,17.24505 -3.81422,5.59575 -7.97205,10.87303 -13.10076,15.24393 -5.09288,4.34958 -11.15811,7.72329 -17.74485,8.94717 -6.55093,1.21724 -13.64054,0.16796 -19.1462,-3.56243 -3.5601,-2.40611 -6.37699,-5.84695 -8.43011,-9.67657 -2.05404,-3.83136 -3.36524,-8.03602 -4.29258,-12.3123 -0.92262,-4.28809 -1.46834,-8.65664 -2.08071,-13.02696 -0.61362,-4.37922 -1.2931,-8.7511 -2.4848,-13.02115 -2.67752,-9.60016 -7.93234,-18.4094 -14.99195,-25.31066 -7.13325,-6.97324 -16.07352,-11.97259 -25.60409,-14.45027 -9.66467,-2.51253 -19.89348,-2.4285 -29.383631,0.0995 -9.661646,2.57371 -18.520041,7.66158 -25.550758,14.47878 -7.189412,6.97109 -12.445624,15.7153 -15.295332,25.05282 -2.928813,9.59673 -3.314901,19.77923 -1.350098,29.30759 2.006052,9.75964 6.593732,18.80778 12.87355,26.30547 6.399352,7.6404 14.551163,13.673 23.620061,17.33704 10.781258,4.35031 22.507518,5.44252 33.530798,4.10076 11.57558,-1.40899 22.49329,-5.45099 32.11307,-10.85347 20.32852,-11.40449 35.96423,-29.34182 48.60017,-47.02595 8.07734,-11.31184 14.00224,-20.9049 22.18357,-30.75028 8.65764,-10.41858 18.21681,-18.76398 29.18372,-23.70044 15.87066,-7.14235 33.16669,-6.23984 46.48797,-0.76282 z"
       id="path34"
       inkscape:connector-curvature="0"
       inkscape:path-effect="#path-effect36;#path-effect38"
       inkscape:original-d="m 301.9962,148.41461 c -22.55231,-2.6e-4 -23.68623,0.75587 -46.49106,0.75595 -77.09956,2.7e-4 -41.57712,36.03347 -51.40476,54.42858 -9.82764,18.39511 -89.32812,37.0414 -114.148816,53.67261 -24.820702,16.63122 63.374276,-49.64113 75.217266,-72.57142 11.84299,-22.93029 -17.38664,53.92433 17.38691,48.38095 34.77355,-5.54339 110.87328,-51.40503 122.84226,-44.60119 11.96899,6.80383 -39.56334,36.95323 -60.85731,55.43024 -21.29397,18.47702 7.3099,23.27045 12.47635,34.90607 5.16646,11.63562 -44.60092,27.96997 -66.90178,41.95536 -22.30086,13.98538 -59.09001,-104.1957 -79.37501,-159.88393"
       sodipodi:nodetypes="csssssssssc" />
    <path
       inkscape:original-d="m 38.961703,114.35939 c 21.418915,-13.8594 43.089549,-27.970513 64.633927,-41.955363 21.54437,-13.98485 45.86137,2.51958 68.79166,3.77976 22.93029,1.26019 29.98638,-21.16693 44.97917,-31.749995 14.99279,-10.58307 -5.29141,63.247748 -7.9375,94.872018 -2.6461,31.62428 10.33161,-23.43478 15.49702,-35.15178"
       inkscape:path-effect="#path-effect81;#path-effect83"
       inkscape:connector-curvature="0"
       id="path79"
       d="m 44.60119,127.66667 c 4.097348,10.5655 13.201377,19.54001 24.594198,23.22147 10.817844,3.49565 23.519528,2.06081 33.532262,-4.43859 9.56068,-6.20597 16.43693,-16.98032 17.70565,-28.8208 1.21702,-11.35787 -2.82644,-23.4824 -11.19754,-31.918072 -0.001,0.0013 -0.001,0.0014 -0.001,0.0015 -10e-6,8.3e-5 -4e-5,1.73e-4 -10e-5,2.52e-4 -5e-5,7.8e-5 -1.1e-4,1.34e-4 -1.7e-4,1.5e-4 -7e-5,1.7e-5 -10e-5,-1.2e-5 -10e-5,-5.6e-5 -1e-5,-4e-5 -1e-5,-8.1e-5 -2e-5,-1.23e-4 -1e-5,-3.8e-5 -3e-5,-9.2e-5 -3e-5,-1.39e-4 0,-4.9e-5 1e-5,-9.8e-5 6e-5,-1.1e-4 5e-5,-1.1e-5 1.2e-4,2e-5 1.9e-4,1.12e-4 6e-5,7.9e-5 1e-4,1.74e-4 1.3e-4,2.39e-4 2e-5,6e-5 5e-5,1.31e-4 6e-5,1.84e-4 1e-5,5.9e-5 1e-5,1.36e-4 -5e-5,2.21e-4 -6e-5,8.5e-5 -1.9e-4,1.8e-4 -3.8e-4,2.3e-4 -1.7e-4,5e-5 -3.5e-4,5.2e-5 -4.8e-4,3.7e-5 -1.4e-4,-1.3e-5 -2.6e-4,-4.4e-5 -3.7e-4,-9.1e-5 -1.8e-4,-8.3e-5 -4.9e-4,-3.23e-4 -5.2e-4,-9.03e-4 -3e-5,-5.19e-4 1.7e-4,-9.66e-4 3.8e-4,-0.0012 2e-4,-2.55e-4 6.4e-4,-5.93e-4 10e-4,-5.42e-4 6.8e-4,4.2e-5 0.001,3.7e-4 0.002,7.03e-4 3.2e-4,3.3e-4 6.8e-4,9.35e-4 5.8e-4,0.0018 -9e-5,8.42e-4 -5.1e-4,0.0015 -9.6e-4,0.0019 -4.4e-4,4.03e-4 -0.001,8.09e-4 -0.002,7.17e-4 -0.001,-8.4e-5 -0.002,-5.48e-4 -0.002,-0.0011 -5.2e-4,-5.18e-4 -10e-4,-0.0014 -10e-4,-0.0026 0,-0.0011 4.2e-4,-0.0021 9.7e-4,-0.0028 5.4e-4,-6.74e-4 0.001,-0.0014 0.003,-0.0016 0.001,-1.98e-4 0.002,8.4e-5 0.003,5.64e-4 8.7e-4,4.75e-4 0.002,0.0013 0.002,0.0027 5e-4,0.0013 5e-4,0.0026 2.1e-4,0.0037 -2.9e-4,0.0011 -9.4e-4,0.0023 -0.002,0.0032 -10e-4,8.98e-4 -0.003,0.0013 -0.004,0.0014 -0.001,4.9e-5 -0.003,-2.38e-4 -0.004,-0.0012 -0.001,-8.87e-4 -0.002,-0.0021 -0.003,-0.0033 -5.2e-4,-0.0012 -7.8e-4,-0.0027 -4.4e-4,-0.0044 3.2e-4,-0.0016 0.001,-0.003 0.002,-0.0041 9.5e-4,-0.001 0.002,-0.0019 0.004,-0.0024 0.002,-4.44e-4 0.003,-3.92e-4 0.005,-1.2e-5 0.001,3.78e-4 0.003,0.0011 0.004,0.0024 0.001,0.0013 0.002,0.0027 0.002,0.0042 4.4e-4,0.0015 5.7e-4,0.0032 1.8e-4,0.005 -10e-4,0.0035 -0.002,0.0047 -0.004,0.0052 -0.001,5.36e-4 -0.003,5.89e-4 -0.004,-1.5e-4 -0.001,-7e-4 -0.002,-0.0018 -0.003,-0.0032 -3.9e-4,-0.0014 -3.6e-4,-0.0028 2.7e-4,-0.0041 6.1e-4,-0.0012 0.002,-0.0022 0.003,-0.0028 0.001,-5.4e-4 0.002,-7.88e-4 0.003,-6.13e-4 0.001,1.56e-4 0.002,5.15e-4 0.003,0.0011 7.2e-4,5.4e-4 0.001,0.0012 0.002,0.0018 4.1e-4,0.0015 5.9e-4,0.0015 7.1e-4,0.0019 3.9e-4,1.61e-4 0.002,-1.89e-4 0.003,-5.2e-5 0.005,-2.13e-4 0.0103,0.0015 0.0221,0.0062 2.67596,1.184946 5.42606,2.398738 8.23638,3.27776 2.80234,0.876529 5.6752,1.423935 8.61624,1.279961 2.9258,-0.143042 5.87532,-1.011072 8.24055,-2.777368 2.34933,-1.754437 4.07565,-4.446797 4.36171,-7.387967 0.14231,-1.461158 -0.0698,-2.966596 -0.65764,-4.322646 -0.58429,-1.347884 -1.54342,-2.543441 -2.76743,-3.373083 -1.21694,-0.824842 -2.69498,-1.279755 -4.17371,-1.234858 -1.47058,0.04466 -2.93337,0.591095 -4.04979,1.563061 -1.11049,0.966811 -1.86313,2.353614 -2.02354,3.826049 -0.15958,1.464865 0.27949,2.998741 1.23131,4.134809 0.94712,1.130454 2.39649,1.841326 3.87952,1.852573 1.36452,0.01033 2.73134,-0.58379 3.6421,-1.605205 -2.31686,4.755114 -3.43156,10.081197 -3.31743,15.377918 0.1163,5.3971 1.50878,10.76446 4.2064,15.45713 0,0 1.2e-4,2e-4 1.2e-4,2e-4 2.69263,4.68388 6.66558,8.60122 11.32308,11.3521 0,0 2e-4,1.2e-4 2e-4,1.2e-4 4.64828,2.74538 9.97932,4.32909 15.39251,4.34726 5.40369,0.0181 10.77444,-1.55696 15.40737,-4.34794 4.62429,-2.78575 8.51425,-6.78372 10.95883,-11.61414 2.44049,-4.82235 3.34419,-10.3639 2.7664,-15.740836 0,0 -3e-5,-2.37e-4 -3e-5,-2.37e-4 -0.57681,-5.367442 -2.63043,-10.572106 -6.10633,-14.723234 0,0 -1.6e-4,-1.83e-4 -1.6e-4,-1.83e-4 -3.47061,-4.144729 -8.27781,-7.080978 -13.49175,-8.513508 -5.20524,-1.430143 -10.81751,-1.361567 -15.90061,0.504691 -5.07571,1.863543 -9.41239,5.4871 -12.39031,9.999045 0,0 -1.3e-4,2.01e-4 -1.3e-4,2.01e-4 -2.97326,4.504967 -4.59261,9.897414 -4.23228,15.300916 0,0 2e-5,2.4e-4 2e-5,2.4e-4 0.3599,5.396195 2.72297,10.550035 6.33597,14.569885 3.60774,4.014 8.46368,6.89869 13.81176,7.75488 0,0 2.4e-4,4e-5 2.4e-4,4e-5 5.34142,0.85506 10.88756,-0.4086 15.53102,-3.17198 4.6371,-2.75959 8.37609,-7.01665 10.10131,-12.1514 l 8e-5,-2.3e-4 c 1.76107,-5.10981 1.35874,-10.796463 -0.71121,-15.780039 -2.06731,-4.977223 -5.79974,-9.25598 -10.70246,-11.548074 0,0 -2.2e-4,-1.03e-4 -2.2e-4,-1.03e-4 -4.89762,-2.289635 -10.61609,-2.373698 -15.73965,-0.685748 -5.11752,1.685961 -9.64505,5.141508 -12.15806,9.935599 0,0 -1.1e-4,2.15e-4 -1.1e-4,2.15e-4 -2.51066,4.78975 -2.73872,10.522491 -1.13082,15.66961 0,0 7e-5,2.3e-4 7e-5,2.3e-4 1.60616,5.14138 5.0461,9.70263 9.87681,12.14635 0,0 2.1e-4,1.1e-4 2.1e-4,1.1e-4 4.82689,2.4417 10.5819,2.46781 15.65017,0.63342 5.06329,-1.83258 9.44606,-5.52435 11.52417,-10.52448 2.0766,-4.99654 1.55216,-10.745227 -0.79949,-15.592267 -1.17516,-2.422152 -2.80701,-4.619911 -4.79947,-6.38593 -1.99175,-1.765386 -4.34422,-3.099617 -6.96085,-3.794358 0,0 -2.3e-4,-6.2e-5 -2.3e-4,-6.2e-5 -2.61599,-0.694531 -5.32777,-0.68806 -7.93476,-0.118971 -2.60615,0.568906 -5.10789,1.700134 -7.30494,3.25575 -2.19615,1.554976 -4.0885,3.534469 -5.47601,5.800984 -1.38711,2.265883 -2.26987,4.819058 -2.44623,7.521272 -0.17632,2.701603 0.38382,5.351392 1.48911,7.774352 1.10497,2.42226 2.75491,4.61817 4.75914,6.41304 2.00351,1.79423 4.36175,3.1883 6.88438,4.0066 2.52206,0.81811 5.20893,1.06081 7.86922,0.55163 2.65983,-0.5091 5.06549,-1.74445 7.09598,-3.45881 2.02993,-1.7139 3.68522,-3.90681 4.84513,-6.33238 1.15959,-2.42491 1.82451,-5.083305 1.87286,-7.728982 0.0482,-2.63773 -0.5165,-5.263347 -1.81552,-7.631318 0.22753,-0.967141 0.72053,-1.870085 1.4058,-2.590864 0.69,-0.725752 1.57266,-1.265885 2.53112,-1.558713 0.95795,-0.292669 1.98951,-0.338637 2.97212,-0.141013 0.98228,0.19756 1.9142,0.637357 2.69721,1.263216 1.56578,1.250971 2.48901,3.249879 2.49395,5.255622 0.005,2.005696 -0.88781,3.985366 -2.34858,5.361606 -1.46102,1.376474 -3.46206,2.146692 -5.47009,2.175904 -2.00874,0.02922 -4.00983,-0.66889 -5.6097,-1.884947 -1.60073,-1.216703 -2.79992,-2.93738 -3.45722,-4.837884 -0.65779,-1.901927 -0.77993,-3.97648 -0.42296,-5.957003 0.71414,-3.964458 3.32645,-7.439629 6.65447,-9.715153 3.3316,-2.277969 7.32956,-3.438604 11.34244,-3.894967 4.01676,-0.457023 8.05692,-0.241353 12.10519,0.02896 0,0 1.9e-4,1.2e-5 1.9e-4,1.2e-5 4.05037,0.270458 8.109,0.595631 12.15682,0.355136 4.3194,-0.292253 8.65891,-1.214979 12.45878,-3.291384 3.80614,-2.079853 7.03808,-5.401333 8.45121,-9.502928 0.70803,-2.054383 0.94873,-4.276506 0.61906,-6.422398 -0.33033,-2.150253 -1.24113,-4.217295 -2.6632,-5.860603 -1.42526,-1.646992 -3.36632,-2.853713 -5.48928,-3.32833 -2.12828,-0.475795 -4.42709,-0.198673 -6.34423,0.834144 -1.92244,1.035601 -3.43179,2.834652 -4.04683,4.926093 -0.61688,2.09773 -0.30458,4.461421 0.89374,6.285436 1.2022,1.829917 3.28859,3.061909 5.47121,3.161694 1.09475,0.05026 2.20036,-0.174487 3.18229,-0.654595 0.98535,-0.481791 1.84291,-1.220176 2.45705,-2.125152 0.61643,-0.908344 0.98478,-1.982111 1.04745,-3.074702 0.0629,-1.096911 -0.18356,-2.208765 -0.70933,-3.169383 -0.528,-0.964665 -1.33637,-1.772182 -2.3018,-2.290571 -0.96973,-0.520703 -2.09383,-0.746171 -3.18449,-0.632761 -1.09581,0.113952 -2.15178,0.570561 -2.97734,1.293363 -0.8297,0.726443 -1.42077,1.718259 -1.65716,2.790536 -0.23763,1.077939 -0.11393,2.230117 0.35094,3.225717 0.46746,1.001149 1.27756,1.835772 2.26234,2.324888 l 0.0301,0.01498 0.0321,-0.006 c -0.0185,0.0035 -0.034,-0.0014 -0.0442,-0.0077 -0.0103,-0.0063 -0.0213,-0.01767 -0.0265,-0.0353 -0.005,-0.01727 -0.002,-0.03261 0.003,-0.04335 0.005,-0.01076 0.0143,-0.02266 0.0302,-0.03011 0.0156,-0.0073 0.0306,-0.0071 0.0417,-0.0043 0.0111,0.0028 0.024,0.0098 0.0339,0.02323 0.01,0.0132 0.0127,0.0272 0.0124,0.03835 -3.1e-4,0.01118 -0.004,0.02457 -0.0142,0.03686 -0.01,0.01204 -0.0221,0.01826 -0.0325,0.02084 -0.0105,0.0026 -0.0237,0.0026 -0.0376,-0.0032 -0.0136,-0.0057 -0.0228,-0.01487 -0.0283,-0.02369 -0.006,-0.0088 -0.01,-0.02074 -0.009,-0.03495 7.7e-4,-0.01393 0.006,-0.02512 0.0119,-0.03308 0.006,-0.008 0.0151,-0.01556 0.0278,-0.01994 0.0124,-0.0043 0.024,-0.0041 0.0332,-0.0019 0.009,0.0022 0.0193,0.0072 0.028,0.01616 0.009,0.0088 0.0131,0.01867 0.0151,0.02747 0.002,0.0088 0.002,0.01926 -0.002,0.03033 -0.004,0.01086 -0.01,0.01903 -0.0159,0.02472 -0.006,0.0057 -0.0148,0.01052 -0.0253,0.01282 -0.0103,0.0023 -0.0197,0.0015 -0.0273,-7.55e-4 -0.008,-0.0022 -0.0156,-0.0064 -0.0226,-0.01337 -0.0129,-0.01269 -0.0179,-0.02919 -0.0154,-0.04537 0.002,-0.01637 0.0116,-0.02896 0.0244,-0.03637 0.0129,-0.0075 0.0268,-0.0085 0.0393,-0.0043 0.0126,0.0042 0.0215,0.01258 0.0265,0.02296 0.005,0.0105 0.005,0.02101 0.003,0.03041 -0.003,0.0088 -0.007,0.01342 -0.0114,0.01637 -0.005,0.003 -0.009,0.0039 -0.0127,0.0036 -0.004,-2.61e-4 -0.006,-0.0013 -0.008,-0.0025 -0.001,-9.15e-4 -0.003,-0.0021 -0.002,-0.0019 -4.4e-4,-4.36e-4 -5.7e-4,0.0013 -10e-4,0.0023 -7.8e-4,0.0015 -0.002,0.0039 -0.005,0.0062 -0.005,0.0046 -0.0154,0.01058 -0.03,0.0108 -0.0147,2.58e-4 -0.0336,-0.0049 -0.0524,-0.01721 -0.0191,-0.01255 -0.0377,-0.03188 -0.0543,-0.05735 -0.0369,-0.05594 -0.0545,-0.121284 -0.0857,-0.214039 -0.0163,-0.04857 -0.0342,-0.0966 -0.0536,-0.14402 0,0 -0.13045,0.07372 -0.13045,0.07372 -11.09413,6.271264 -22.0711,12.999071 -31.96246,20.841557 -9.99465,7.924384 -18.81218,16.935097 -25.4627,27.648761 -6.7719,10.909 -10.98354,23.32043 -11.23127,35.85548 -0.25415,12.86034 3.8368,25.71557 11.96659,35.24516 4.17685,4.89617 9.33148,8.83917 15.02045,11.44916 5.85882,2.68791 12.26323,3.94327 18.50784,3.61939 6.44896,-0.33447 12.69482,-2.36038 17.91443,-5.79007 5.40803,-3.55351 9.67663,-8.5998 12.1761,-14.31344 2.59976,-5.94291 3.25873,-12.56649 1.94717,-18.65184 -1.37058,-6.35917 -4.8861,-12.0703 -9.69079,-16.00594 -5.04979,-4.1364 -11.46674,-6.26241 -17.65589,-6.055 -5.53644,0.18554 -12.09499,2.36602 -17.04801,7.47628 0,0 -0.0152,0.0156 -0.0152,0.0156 0,0 -0.009,0.0197 -0.009,0.0197 -6.7219,14.30364 -8.53581,32.8503 -1.7912,49.95291 5.95037,15.08857 18.81997,28.72679 35.83782,34.60632 15.56181,5.37647 34.40078,3.84143 49.29533,-5.86208 7.07868,-4.61163 13.092,-11.02749 17.41036,-18.56306 4.20282,-7.33395 6.79304,-15.72715 7.10288,-24.39027 0.30301,-8.47252 -1.61903,-17.07419 -5.46908,-24.82457 -3.77199,-7.59326 -9.3966,-14.3626 -16.52348,-19.25249 -7.0093,-4.80921 -15.36555,-7.67706 -23.96655,-8.37314 -8.4709,-0.68555 -17.17402,0.73996 -24.9328,4.50141 -7.66547,3.71622 -14.22099,9.67036 -18.90228,16.89421 -4.63072,7.1458 -7.42157,15.53095 -7.58553,24.13422 -0.16261,8.53279 2.30954,17.05904 6.79267,24.38541 4.45184,7.27524 10.88555,13.3609 18.64929,17.0345 7.72858,3.65381 16.55908,4.76236 25.03443,3.47829 8.4463,-1.27967 16.53343,-4.93594 22.78501,-10.80484 6.24186,-5.85977 10.39762,-13.7547 12.10702,-22.13694 1.70943,-8.38238 0.9711,-17.24552 -2.56676,-25.0404 -3.54355,-7.80738 -9.79833,-14.20082 -17.26921,-18.3322 -7.49718,-4.14592 -16.21194,-6.01179 -24.66648,-4.76975 -8.4954,1.24805 -16.31907,5.6291 -22.19717,11.79454 -5.92071,6.21014 -9.86486,14.22233 -10.60403,22.7197 -0.74531,8.56798 1.86344,17.1709 6.66479,24.18272 4.85596,7.09157 11.9445,12.55218 20.14391,14.83768 8.29953,2.3134 17.24083,1.17726 24.91169,-2.42607 7.79505,-3.66167 14.27375,-9.85792 17.65354,-17.64818 3.43661,-7.92122 3.37812,-16.95841 0.6771,-24.96268 -2.76065,-8.18098 -8.26427,-15.27743 -15.69809,-19.3316 -7.6014,-4.14554 -16.64495,-4.73538 -24.77755,-2.57791 -8.3657,2.2193 -15.76119,7.32159 -20.11236,14.53891 -2.51638,-3.17989 -4.02473,-6.9522 -4.50659,-10.69841 -0.52524,-4.08344 0.15943,-8.10125 1.66357,-11.5169 1.69448,-3.84789 4.39645,-6.90887 7.37458,-9.00452 3.58496,-2.52267 7.52887,-3.65911 10.96744,-3.90111 -3.43838,0.24199 -7.38276,1.37706 -10.96957,3.89807 -2.97969,2.09429 -5.68486,5.15421 -7.38342,9.00272 -1.50776,3.41621 -2.19692,7.43644 -1.67521,11.52464 0.47963,3.75838 1.99097,7.54528 4.51738,10.73728 0,0 0.0158,0.0199 0.0158,0.0199 0,0 0.0131,-0.0218 0.0131,-0.0218 4.34589,-7.21881 11.74055,-12.3215 20.10602,-14.53837 8.12458,-2.15304 17.15565,-1.5606 24.74346,2.58022 7.42059,4.04957 12.91417,11.13661 15.66859,19.30667 2.69504,7.99393 2.74981,17.01565 -0.68205,24.91976 -3.37514,7.77346 -9.84322,13.95656 -17.62564,17.60954 -7.65875,3.59492 -16.58208,4.72499 -24.86084,2.41475 -8.179,-2.28239 -15.25051,-7.73262 -20.09428,-14.81093 -4.78948,-6.99896 -7.38833,-15.58238 -6.64252,-24.12633 0.73968,-8.4737 4.67573,-16.46456 10.58419,-22.65808 5.86623,-6.14925 13.67059,-10.51508 22.13996,-11.75667 8.42885,-1.23565 17.11835,0.62701 24.59427,4.76416 7.44992,4.12277 13.68324,10.49974 17.21231,18.28155 3.52356,7.76971 4.25746,16.60534 2.55047,24.9626 -1.707,8.35736 -5.85256,16.22482 -12.07331,22.06119 -6.23067,5.84568 -14.29139,9.48766 -22.71125,10.76069 -8.44902,1.27743 -17.24827,0.1691 -24.9455,-3.47276 -7.73279,-3.66184 -14.14193,-9.72717 -18.57646,-16.97907 -4.46579,-7.30301 -6.92542,-15.79882 -6.76092,-24.29665 0.16589,-8.56852 2.94818,-16.92133 7.56443,-24.04017 4.66676,-7.19672 11.19932,-13.12539 18.83343,-16.82363 7.72739,-3.74342 16.39664,-5.1613 24.8357,-4.47586 8.5688,0.69598 16.89069,3.55546 23.86819,8.34578 7.09487,4.87091 12.69519,11.61414 16.45053,19.17917 3.83309,7.72166 5.74433,16.2889 5.44036,24.72393 -0.31083,8.62528 -2.8922,16.98332 -7.0804,24.28728 -4.30336,7.50481 -10.29385,13.89224 -17.34231,18.48162 -14.83387,9.65861 -33.59675,11.1829 -49.09114,5.82577 -16.9445,-5.85852 -29.75929,-19.44409 -35.68181,-34.4704 -6.71014,-17.02466 -4.90564,-35.48792 1.78301,-49.72962 4.89886,-5.04159 11.38165,-7.19444 16.85445,-7.37784 6.12444,-0.20524 12.47879,1.8991 17.47944,5.99513 4.75783,3.89714 8.24189,9.55546 9.60022,15.85702 1.29981,6.03009 0.64737,12.59729 -1.93044,18.49057 -2.47833,5.66584 -6.71261,10.67298 -12.07898,14.19944 -5.17933,3.40355 -11.37981,5.41569 -17.78369,5.74815 -6.2009,0.32192 -12.56345,-0.92432 -18.38549,-3.59496 -5.65323,-2.59321 -10.77795,-6.51223 -14.93163,-11.38062 -8.08389,-9.47517 -12.15838,-22.26632 -11.90576,-35.07149 0.24623,-12.48107 4.43986,-24.84803 11.19131,-35.72496 6.63061,-10.682045 15.42526,-19.671728 25.40355,-27.583448 9.83625,-7.799098 20.75148,-14.497012 31.79588,-20.744633 0.0172,0.04278 0.0383,0.08686 0.0653,0.127213 0.0316,0.0471 0.0742,0.09418 0.13,0.129486 0.0547,0.03464 0.12359,0.05816 0.19771,0.05511 0.0726,-0.003 0.14997,-0.03286 0.20512,-0.09401 0.0268,-0.02999 0.0478,-0.06693 0.0588,-0.108282 0.0109,-0.04068 0.0119,-0.08519 5.9e-4,-0.12837 -0.0111,-0.04251 -0.0342,-0.08299 -0.0681,-0.114652 -0.0334,-0.0312 -0.0769,-0.05302 -0.12466,-0.05967 -0.0471,-0.0066 -0.097,0.002 -0.14034,0.02691 -0.0427,0.02453 -0.0774,0.06429 -0.0947,0.112946 -0.0161,0.04767 -0.0145,0.09963 0.007,0.145708 0.0208,0.04549 0.0599,0.08278 0.10926,0.1002 0.0487,0.01721 0.1047,0.0136 0.15177,-0.01276 0.0465,-0.02604 0.0809,-0.07292 0.0899,-0.127726 0.009,-0.05417 -0.008,-0.111874 -0.0485,-0.152381 -0.0206,-0.02073 -0.0456,-0.03519 -0.0718,-0.04322 -0.0261,-0.008 -0.0553,-0.01023 -0.0846,-0.0042 -0.0295,0.0061 -0.0558,0.01991 -0.0768,0.0383 -0.0209,0.01832 -0.0385,0.04274 -0.0484,0.07197 -0.01,0.02934 -0.0109,0.05979 -0.005,0.08761 0.006,0.02772 0.0194,0.05548 0.0412,0.07845 0.022,0.02307 0.0494,0.03798 0.0775,0.04507 0.028,0.0071 0.0596,0.0071 0.0904,-0.0033 0.031,-0.01046 0.0564,-0.02993 0.0744,-0.05317 0.018,-0.02316 0.0307,-0.05287 0.0328,-0.08619 0.002,-0.0335 -0.007,-0.06493 -0.0226,-0.09039 -0.0155,-0.02538 -0.0394,-0.04825 -0.0708,-0.06167 -0.0317,-0.0135 -0.0651,-0.01481 -0.0945,-0.0079 -0.0293,0.0069 -0.059,0.02301 -0.0815,0.04989 -0.0226,0.02706 -0.0332,0.05956 -0.0343,0.0901 -0.001,0.03045 0.007,0.06401 0.028,0.09298 0.0213,0.02917 0.0512,0.04714 0.081,0.05506 0.0298,0.0079 0.065,0.0072 0.0982,-0.0081 0.0335,-0.01545 0.057,-0.04219 0.0701,-0.07048 0.0131,-0.02822 0.0184,-0.0637 0.008,-0.09965 -0.0105,-0.03624 -0.0344,-0.06351 -0.061,-0.08018 -0.0163,-0.01021 -0.0358,-0.01783 -0.0572,-0.02063 -0.93473,-0.469214 -1.70533,-1.264998 -2.1515,-2.218642 -0.44683,-0.955092 -0.56691,-2.062724 -0.33926,-3.09915 0.22645,-1.030943 0.79466,-1.986626 1.59306,-2.686741 0.79441,-0.696612 1.81244,-1.138048 2.86926,-1.248768 1.05187,-0.110196 2.13796,0.106505 3.07519,0.60882 0.93304,0.500068 1.71589,1.280526 2.2275,2.213528 0.50946,0.929104 0.74935,2.006158 0.6892,3.069239 -0.0599,1.058869 -0.41631,2.101148 -1.01391,2.983249 -0.59538,0.878812 -1.42802,1.597156 -2.38544,2.066222 -0.9541,0.467438 -2.02981,0.687197 -3.09555,0.639108 -2.12377,-0.09625 -4.16024,-1.296021 -5.33386,-3.0809 -1.16971,-1.778925 -1.4772,-4.089618 -0.87469,-6.141515 0.6007,-2.045662 2.07813,-3.809785 3.96246,-4.825825 1.8791,-1.013289 4.13631,-1.28726 6.22789,-0.820546 2.08634,0.465556 3.99743,1.651643 5.40183,3.27321 1.40121,1.617885 2.30083,3.655692 2.62774,5.777975 0.32624,2.11793 0.0898,4.313958 -0.6097,6.346308 -1.39682,4.056917 -4.59669,7.351516 -8.37605,9.41772 -3.77331,2.062876 -8.08856,2.983082 -12.39384,3.275253 -4.03532,0.240185 -8.08281,-0.08353 -12.13698,-0.353803 0,0 -1.8e-4,-1.2e-5 -1.8e-4,-1.2e-5 -4.04798,-0.26986 -8.10056,-0.486199 -12.13235,-0.02703 -4.02881,0.459052 -8.05198,1.626072 -11.40896,3.922457 -3.35334,2.293896 -5.99248,5.801099 -6.714,9.811483 -0.3602,2.003392 -0.23611,4.103032 0.4311,6.029512 0.66674,1.925097 1.88262,3.668974 3.50737,4.902833 1.62386,1.23318 3.65523,1.941445 5.69653,1.910867 2.04052,-0.03057 4.07432,-0.813775 5.5606,-2.215251 1.48597,-1.401192 2.39426,-3.416088 2.38834,-5.46014 -0.006,-2.044017 -0.9469,-4.080668 -2.54534,-5.35659 -0.79938,-0.637811 -1.75042,-1.085685 -2.7531,-1.286448 -1.00306,-0.200836 -2.05574,-0.153065 -3.03353,0.146588 -0.97835,0.299829 -1.87894,0.851955 -2.58302,1.593793 -0.7046,0.742392 -1.20958,1.673279 -1.43879,2.670088 -0.002,0.0074 -0.003,0.01485 -0.005,0.02229 0,0 0.0109,0.01984 0.0109,0.01984 1.29592,2.352903 1.86021,4.964936 1.81242,7.591709 -0.0478,2.627537 -0.70804,5.269418 -1.86069,7.680298 -1.15295,2.41153 -2.79808,4.59097 -4.81441,6.29367 -2.01671,1.70302 -4.40425,2.92874 -7.04227,3.43389 -2.639,0.50533 -5.306,0.26512 -7.81155,-0.5474 -2.50633,-0.81278 -4.85076,-2.19814 -6.84326,-3.98221 -1.9932,-1.7847 -3.63352,-3.96776 -4.73176,-6.37474 -1.09848,-2.40751 -1.65442,-5.038492 -1.47967,-7.719381 0.17482,-2.681979 1.05083,-5.217594 2.42916,-7.469542 1.37881,-2.252727 3.26012,-4.221318 5.44447,-5.768205 2.18524,-1.547518 4.67307,-2.672519 7.26374,-3.238267 2.59136,-0.565899 5.28505,-0.572164 7.8823,0.117168 1e-5,0 2.4e-4,6.2e-5 2.4e-4,6.2e-5 2.59832,0.689657 4.93574,2.014674 6.916,3.769584 1.98107,1.755635 3.60448,3.941342 4.77389,6.351131 2.34068,4.823443 2.86039,10.53926 0.79808,15.50252 -2.06408,4.96751 -6.4205,8.64065 -11.46033,10.4652 -5.04476,1.82633 -10.76872,1.79898 -15.56571,-0.62711 0,0 -2.1e-4,-1.1e-4 -2.1e-4,-1.1e-4 -4.8014,-2.42841 -8.22513,-6.96422 -9.82466,-12.08292 0,0 -7e-5,-2.3e-4 -7e-5,-2.3e-4 -1.60125,-5.124386 -1.37327,-10.828102 1.12246,-15.590298 0,0 1.1e-4,-2.14e-4 1.1e-4,-2.14e-4 2.49836,-4.76706 7.0023,-8.207223 12.09836,-9.886568 5.10204,-1.681316 10.79345,-1.596843 15.66492,0.680091 0,0 2.2e-4,1.02e-4 2.2e-4,1.02e-4 4.87704,2.279616 8.59365,6.53746 10.65319,11.494864 2.06216,4.96371 2.46214,10.625293 0.71012,15.710143 l -2e-4,5.9e-4 c -1.71639,5.10983 -5.43813,9.34965 -10.05772,12.09933 -4.62593,2.75344 -10.14934,4.01152 -15.46626,3.16081 0,0 -2.3e-4,-4e-5 -2.3e-4,-4e-5 -5.32401,-0.8519 -10.16125,-3.72384 -13.75664,-7.72347 -3.60063,-4.00544 -5.95445,-9.13966 -6.31326,-14.512945 0,0 -1e-5,-2.39e-4 -1e-5,-2.39e-4 -0.35926,-5.38097 1.2529,-10.753739 4.216,-15.244094 0,0 1.3e-4,-2e-4 1.3e-4,-2e-4 2.96774,-4.4973 7.28908,-8.107928 12.34484,-9.964601 5.06348,-1.859507 10.65641,-1.928934 15.84572,-0.503611 5.19796,1.427698 9.98939,4.354275 13.4479,8.483899 0,0 1.6e-4,1.83e-4 1.6e-4,1.83e-4 3.464,4.13625 5.51198,9.324009 6.08756,14.675976 0,0 3e-5,2.36e-4 3e-5,2.36e-4 0.57655,5.361436 -0.32428,10.886206 -2.75641,15.692956 -2.43633,4.81507 -6.31428,8.80192 -10.92601,11.58061 -4.62034,2.78388 -9.97605,4.35479 -15.36362,4.33712 -5.3973,-0.0177 -10.71423,-1.5964 -15.35125,-4.33464 0,0 -2e-4,-1.2e-4 -2e-4,-1.2e-4 -4.64622,-2.74373 -8.6092,-6.65087 -11.29489,-11.32185 0,0 -1.2e-4,-2e-4 -1.2e-4,-2e-4 -2.69079,-4.67993 -4.08052,-10.03392 -4.19698,-15.418754 -0.11669,-5.39611 1.04495,-10.822512 3.45611,-15.641377 l -0.0658,-0.04108 c -0.88516,1.159538 -2.34028,1.846231 -3.79353,1.836057 -1.46013,-0.01024 -2.88968,-0.709792 -3.82425,-1.823986 -0.93919,-1.119716 -1.37397,-2.63367 -1.21719,-4.080396 0.15759,-1.45414 0.9005,-2.825701 1.99814,-3.782407 1.10352,-0.961818 2.55099,-1.503824 4.00713,-1.54886 1.4643,-0.04527 2.92941,0.404457 4.13639,1.221578 1.21403,0.821895 2.16649,2.0074 2.74721,3.345033 0.58423,1.345717 0.79594,2.84084 0.65532,4.292902 -0.28344,2.922516 -1.99882,5.601661 -4.33713,7.348855 -2.35415,1.759016 -5.29227,2.625326 -8.20976,2.768747 -2.93281,0.143966 -5.79924,-0.40143 -8.5981,-1.276459 -2.80715,-0.877621 -5.55474,-2.089809 -8.23287,-3.275229 -0.012,-0.0041 -0.0295,-0.0102 -0.0481,-0.0071 -0.01,0.0018 -0.02,0.0062 -0.0282,0.01431 -0.008,0.0082 -0.0139,0.02012 -0.0132,0.03317 5.4e-4,0.0065 0.003,0.01298 0.006,0.01856 0.004,0.0056 0.009,0.01022 0.0155,0.01296 0.006,0.0028 0.0137,0.0035 0.0206,0.0019 0.007,-0.0016 0.0133,-0.0056 0.0177,-0.01127 0.004,-0.0058 0.007,-0.0131 0.006,-0.02034 -7e-4,-0.0073 -0.004,-0.01416 -0.0101,-0.01865 -0.006,-0.0046 -0.0135,-0.0064 -0.0206,-0.0048 -0.007,0.0015 -0.0134,0.0065 -0.0165,0.01307 -0.002,0.0048 -0.001,0.0075 -8.5e-4,0.0099 6.2e-4,0.0024 0.002,0.0048 0.004,0.0068 0.002,0.002 0.004,0.0034 0.006,0.0041 0.002,7.21e-4 0.005,8.9e-4 0.008,2.87e-4 0.003,-6.13e-4 0.005,-0.002 0.007,-0.0036 0.002,-0.0017 0.003,-0.0039 0.004,-0.0064 6.1e-4,-0.0026 3.4e-4,-0.0051 -4.5e-4,-0.0072 -8e-4,-0.0021 -0.002,-0.0042 -0.004,-0.0057 -0.002,-0.0015 -0.004,-0.0022 -0.007,-0.0022 -0.002,-2.4e-5 -0.005,5.78e-4 -0.007,0.002 -0.002,0.0014 -0.003,0.0034 -0.004,0.0053 -6.5e-4,0.002 -7.5e-4,0.0043 0,0.0065 7.7e-4,0.0023 0.002,0.0039 0.004,0.005 0.002,0.001 0.004,0.0017 0.006,0.0014 0.002,-2.47e-4 0.004,-0.0014 0.005,-0.0027 0.001,-0.0013 0.002,-0.0032 0.002,-0.0053 1e-4,-0.0021 -7e-4,-0.004 -0.002,-0.0052 -0.001,-0.0013 -0.003,-0.0024 -0.005,-0.0026 -0.002,-2.92e-4 -0.004,3.29e-4 -0.005,0.0012 -0.001,9.12e-4 -0.002,0.0023 -0.003,0.0041 -3.3e-4,0.0018 2.2e-4,0.0034 10e-4,0.0046 8.2e-4,0.0012 0.002,0.0021 0.004,0.0024 0.002,2.66e-4 0.003,-3.12e-4 0.004,-0.0011 10e-4,-7.99e-4 0.002,-0.002 0.002,-0.0035 1.2e-4,-0.0015 -5.4e-4,-0.0027 -0.001,-0.0035 -4.1e-4,-4.08e-4 -9.1e-4,-7.43e-4 -10e-4,-9.68e-4 -5.6e-4,-2.29e-4 -0.001,-3.5e-4 -0.002,-3.04e-4 -6.7e-4,4.6e-5 -10e-4,2.65e-4 -0.002,5.6e-4 -4.7e-4,2.97e-4 -8.6e-4,6.81e-4 -0.001,0.0011 -2.9e-4,4.21e-4 -5e-4,9.03e-4 -6.1e-4,0.0014 -1e-4,5.18e-4 -1e-4,0.0011 5e-5,0.0016 1.6e-4,5.59e-4 4.5e-4,10e-4 8e-4,0.0014 3.4e-4,3.47e-4 7.4e-4,5.99e-4 10e-4,7.6e-4 4.1e-4,1.62e-4 8.7e-4,2.43e-4 0.001,2.24e-4 4.5e-4,-1.9e-5 9.2e-4,-1.42e-4 0.001,-3.92e-4 4.3e-4,-2.54e-4 7.3e-4,-6.04e-4 9.4e-4,-9.71e-4 2e-4,-3.67e-4 3.1e-4,-7.64e-4 3.4e-4,-0.0011 3e-5,-3.86e-4 -1e-5,-7.79e-4 -1.4e-4,-0.0011 -1.4e-4,-3.69e-4 -3.6e-4,-7.13e-4 -6.7e-4,-9.81e-4 8.36963,8.436353 12.41326,20.560361 11.19649,31.917951 -1.26847,11.84019 -8.14438,22.61448 -17.70487,28.8205 -10.012524,6.49946 -22.714107,7.93445 -33.531951,4.43888 C 57.80261,147.20665 48.698542,138.23218 44.60119,127.66667 Z"
       style="fill:#0000ff;fill-rule:nonzero;stroke:none;stroke-width:0.26458332px;stroke-linecap:butt;stroke-linejoin:miter;stroke-opacity:1" />
    <path
       sodipodi:nodetypes="cccccccc"
       inkscape:original-d="m 69.577769,194.86832 c 15.3713,-20.66296 30.742331,-41.32566 46.113101,-61.98809 34.26961,-16.25301 68.53995,-32.50622 102.80952,-48.758932 -32.12771,3.7795 -64.25544,7.55923 -96.38393,11.33929 -9.07123,33.009912 -18.14259,66.019572 -27.214277,99.029762 14.489477,-18.01729 28.978437,-36.03399 43.467257,-54.0506 2.52011,-3.52804 5.03994,-7.05582 7.55952,-10.58333 -15.37015,40.69354 -30.74179,81.39061 -46.113087,122.08631"
       inkscape:path-effect="#path-effect87;#path-effect89"
       inkscape:connector-curvature="0"
       id="path85"
       d="m 69.577769,194.86832 c -0.08184,-0.0609 4.301867,-6.74383 13.108709,-18.00904 8.004346,-10.23871 22.719332,-28.2145 41.843702,-42.5947 1e-5,0 2e-5,-1e-5 2e-5,-1e-5 12.02469,-9.02964 24.00771,-16.13669 38.97715,-25.25923 4.83405,-2.948 9.97226,-6.02738 14.71035,-9.442033 1.53491,-1.109836 3.04117,-2.236386 4.32857,-3.5225 0,0 1e-5,-1.1e-5 1e-5,-1.1e-5 0.43816,-0.441061 0.83721,-0.871834 1.13627,-1.323052 0.20268,-0.335631 0.36997,-0.599139 0.37857,-0.793205 0,0 0,-7e-6 0,-7e-6 0.009,-0.08716 0.004,-0.184013 -0.0251,-0.201332 -0.0201,-0.08779 -0.194,-0.193039 -0.41912,-0.344007 -0.79334,-0.482355 -1.91018,-0.584838 -3.13139,-0.702672 -4.11071,-0.309449 -8.31543,0.450006 -12.59,1.448988 -11.91353,2.828161 -23.76695,8.345631 -33.37047,16.935591 -2.77545,2.47457 -5.34463,5.19375 -7.71752,8.11839 -6.09413,7.51115 -10.71078,16.15189 -14.16319,24.91231 -1.98577,5.06081 -3.58597,10.16011 -4.5129,15.33325 -0.34008,1.90588 -0.59215,3.78699 -0.62502,5.64537 -0.004,1.29239 0.006,2.49177 0.3823,3.47034 0,0 0,1e-5 0,1e-5 0.23389,0.47747 0.46634,0.92328 0.69833,0.8913 0.30304,0.17418 0.87986,-0.051 1.55597,-0.27649 0,0 1e-5,-10e-6 1e-5,-10e-6 2.33518,-0.96071 4.3137,-2.94015 6.33675,-4.87504 2.74656,-2.6742 5.29262,-5.57548 7.7369,-8.46617 2.47933,-2.93355 4.88824,-5.94024 7.22074,-8.8785 1.75309,-2.20915 3.42294,-4.3789 5.25824,-6.51063 0.53738,-0.628 1.11053,-1.28135 1.78769,-1.89345 0,0 1e-5,-1e-5 1e-5,-1e-5 0.20068,-0.18707 0.45658,-0.39542 0.78423,-0.59405 0,0 3e-5,-2e-5 3e-5,-2e-5 0.1427,-0.15162 0.52611,-0.27588 1.13934,-0.28702 0.67037,0.17508 1.08089,0.51186 1.20949,0.94116 0.1546,0.4723 0.18164,0.83147 0.14803,1.05117 -0.0447,0.96875 -0.26257,1.82893 -0.46522,2.58507 -0.89647,3.49192 -2.12575,6.89657 -3.25046,10.10698 -5.10814,14.60084 -11.05332,30.12716 -15.43723,41.64753 0,0 0,1e-5 0,1e-5 -13.71791,36.04987 -22.51106,58.06763 -22.795667,57.96013 -0.379188,-0.14322 7.811597,-22.39055 21.081817,-58.60024 0,0 0,0 1e-5,-1e-5 4.17562,-11.39395 10.09772,-27.33291 15.02153,-41.74374 1.10341,-3.23364 2.29201,-6.58856 3.12562,-9.94055 0.18403,-0.77352 0.37362,-1.47145 0.38046,-2.09111 -0.0211,-0.17004 0.006,-0.21217 0.0156,-0.10249 0.0437,0.21783 0.275,0.36812 0.71851,0.51913 0.31645,-0.0426 0.41338,-0.0209 0.29845,-0.0211 0,0 -1e-5,1e-5 -1e-5,1e-5 -0.10147,0.0536 -0.22818,0.16918 -0.39786,0.31633 0,0 -1e-5,1e-5 -1e-5,1e-5 -0.53515,0.48189 -1.03338,1.06546 -1.56563,1.68655 -1.76828,2.07648 -3.4043,4.22911 -5.1617,6.46659 -2.32196,2.9574 -4.73105,5.99439 -7.22499,8.97297 -2.45063,2.92827 -5.03809,5.89824 -7.86636,8.67653 -1.97677,1.97714 -4.19891,4.13399 -7.09318,5.41685 0,0 -2e-5,1e-5 -2e-5,1e-5 -0.85145,0.42982 -2.00765,0.69139 -3.30313,0.38102 -1.27264,-0.48807 -2.06537,-1.45897 -2.36836,-2.46711 0,0 -1e-5,-2e-5 -1e-5,-2e-5 -0.52245,-1.50883 -0.58836,-3.01637 -0.54601,-4.38712 0.0357,-2.05312 0.29587,-4.07186 0.64959,-6.05532 0.95753,-5.39081 2.59393,-10.65996 4.62145,-15.83579 3.49968,-8.97216 8.24416,-17.84779 14.55643,-25.61846 2.45743,-3.0252 5.12332,-5.84689 8.00691,-8.42559 10.00516,-8.91972 22.25116,-14.60851 34.53946,-17.475981 4.36485,-1.034211 8.83609,-1.799769 13.3682,-1.470504 1.30794,0.06907 2.77747,0.283492 4.17956,1.031911 0.4837,0.246394 0.97164,0.662788 1.36069,1.274709 0.33721,0.609958 0.44283,1.273054 0.32954,1.900372 0,0 -1e-5,2.6e-5 -1e-5,2.6e-5 -0.15178,0.73982 -0.45299,1.329987 -0.7803,1.776418 -0.44671,0.649255 -0.95135,1.202885 -1.45388,1.693248 0,0 -2e-5,1.3e-5 -2e-5,1.3e-5 -1.46348,1.437672 -3.07401,2.641258 -4.64573,3.758458 -4.87119,3.47392 -10.07206,6.55844 -14.9158,9.47262 -15.0719,9.07442 -26.96838,15.99707 -38.99632,24.85399 0,0 -1e-5,10e-6 -1e-5,10e-6 -18.9644,13.94522 -33.980785,31.71492 -42.165134,41.6743 -9.047348,11.00954 -13.842316,17.41149 -14.007487,17.28862 z"
       style="fill:#e9afaf;stroke:none;stroke-width:0.26458332px;stroke-linecap:butt;stroke-linejoin:miter;stroke-opacity:1" />
    <path
       sodipodi:nodetypes="cssssssc"
       inkscape:original-d="M 100.57182,99.618318 C 78.1455,110.32738 55.214944,121.0367 32.536107,131.74629 c -22.6788349,10.70959 0.252251,67.2795 0.377978,100.91964 0.125728,33.64015 72.697685,-57.95661 66.523808,-53.29464 -6.173875,4.66197 -78.996758,45.1049 -64.255953,20.41072 14.740808,-24.69418 87.18677,-10.07963 124.73214,-30.99405 37.54536,-20.91442 -26.33208,-34.64808 -37.04167,-35.90774 -10.70959,-1.25965 -13.73286,-5.7959 -26.836307,3.40178"
       inkscape:path-effect="#path-effect93;#path-effect95"
       inkscape:connector-curvature="0"
       id="path91"
       d="m 100.57182,99.618318 c -3.283122,0.08212 -8.603635,0.731872 -14.640746,2.237742 -6.282129,1.56698 -10.724477,3.34341 -13.997531,4.52832 -13.422141,4.85904 -27.310291,13.38379 -38.418604,26.20912 -10.871617,12.54879 -19.758916,30.22072 -20.238399,50.0625 -0.414296,17.14419 6.016865,36.27045 20.436156,49.11113 7.835623,6.98804 18.164336,12.14667 29.468609,13.29266 10.539628,1.06849 21.949301,-1.49994 31.005764,-8.14493 8.592891,-6.30484 14.889411,-16.38732 15.968091,-27.47366 0.53214,-5.33863 -0.12392,-10.90197 -2.07972,-16.08279 -1.90552,-5.04767 -5.04727,-9.71034 -9.185168,-13.35996 -4.764987,-4.19658 -10.801169,-6.99371 -17.177931,-8.05326 -6.318193,-1.04982 -12.922321,-0.40316 -19.026527,1.72954 -12.177852,4.28406 -21.909958,14.40816 -26.965168,26.33427 -4.417017,10.41114 -5.445554,22.14871 -3.154693,33.13188 2.323159,11.13801 8.010226,21.4231 15.877819,29.38501 8.047466,8.14394 18.30105,13.82894 29.111562,16.59633 11.167663,2.85882 22.862456,2.62164 33.609776,-0.20384 22.50362,-5.94276 40.54848,-23.35634 49.06181,-43.68417 9.07739,-21.67469 7.81705,-46.17286 -0.42822,-66.39911 -3.54107,-8.72238 -8.20738,-16.40918 -14.13809,-22.56235 -6.68565,-6.93642 -14.68185,-11.52318 -22.79275,-13.37245 -10.08808,-2.29966 -19.72758,-0.27181 -26.831757,3.3817 7.101787,-3.65228 16.738917,-5.69707 26.840857,-3.42186 8.12429,1.82947 16.149,6.39421 22.87841,13.32088 5.96996,6.14497 10.68179,13.82999 14.27408,22.55978 8.30337,20.26092 9.62703,44.8446 0.5513,66.64117 -8.5108,20.43981 -26.61583,38.00924 -49.28002,44.0477 -10.81613,2.89444 -22.614642,3.19118 -33.913106,0.35404 -10.936681,-2.74629 -21.342923,-8.44666 -29.540947,-16.66499 -8.014359,-8.03421 -13.844657,-18.44771 -16.263215,-29.77042 -2.384772,-11.16456 -1.401594,-23.13394 3.059772,-33.79328 5.111068,-12.20074 15.035604,-22.66018 27.596803,-27.13882 6.284116,-2.2553 13.123336,-2.99056 19.71194,-1.95266 6.64896,1.04742 12.988065,3.91083 18.033537,8.28059 4.386796,3.79402 7.738266,8.66365 9.795716,13.96081 2.1116,5.43656 2.85825,11.28877 2.34883,16.92371 -1.08445,11.70338 -7.66498,22.33161 -16.676422,29.00432 -9.496794,7.03213 -21.450257,9.7666 -32.497214,8.69184 -11.8475,-1.15263 -22.648701,-6.50641 -30.840975,-13.7601 C 17.052828,220.209 10.364929,200.35729 10.763827,182.5975 c 0.461616,-20.55223 9.628939,-38.78769 20.793448,-51.69842 11.425397,-13.20909 25.701614,-21.97418 39.489037,-26.96549 3.105865,-1.12439 8.409804,-2.51166 14.639515,-3.35748 6.534301,-0.887172 11.328781,-0.868819 14.885993,-0.957792 z"
       style="fill:#008080;fill-rule:nonzero;stroke:none;stroke-width:0.26458332px;stroke-linecap:butt;stroke-linejoin:miter;stroke-opacity:1" />
    <path
       sodipodi:nodetypes="csssssssssc"
       inkscape:original-d="m 304.29421,145.69066 c -22.55231,-2.6e-4 -23.68623,0.75587 -46.49106,0.75595 -77.09956,2.7e-4 -41.57712,36.03347 -51.40476,54.42858 -9.82764,18.39511 -89.32812,37.0414 -114.148813,53.67261 -24.820702,16.63122 63.374273,-49.64113 75.217263,-72.57142 11.84299,-22.93029 -17.38664,53.92433 17.38691,48.38095 34.77355,-5.54339 110.87328,-51.40503 122.84226,-44.60119 11.96899,6.80383 -39.56334,36.95323 -60.85731,55.43024 -21.29397,18.47702 7.3099,23.27045 12.47635,34.90607 5.16646,11.63562 -44.60092,27.96997 -66.90178,41.95536 -22.30086,13.98538 -59.09001,-104.1957 -79.37501,-159.88393"
       inkscape:path-effect="#path-effect99;#path-effect101"
       inkscape:connector-curvature="0"
       id="path97"
       d="m 304.29421,145.69066 c -13.32022,-5.47659 -30.61631,-6.3856 -46.49415,0.74908 -10.9738,4.93008 -20.54349,13.2685 -29.21667,23.68162 -8.19613,9.84037 -14.1336,19.42644 -22.22556,30.72482 -12.64847,17.67215 -28.28533,35.57606 -48.59608,46.94653 -9.61559,5.37735 -20.51714,9.38829 -32.06264,10.77054 -10.99493,1.31634 -22.67377,0.20173 -33.394872,-4.15051 -9.018097,-3.65622 -17.121193,-9.66826 -23.478076,-17.27714 -6.238451,-7.46713 -10.786787,-16.46954 -12.767529,-26.16846 -1.928723,-9.47497 -1.51732,-19.58797 1.414595,-29.10503 2.852776,-9.26018 8.09119,-17.91873 15.235045,-24.80822 6.986373,-6.7376 15.775129,-11.7513 25.343129,-14.27173 9.398368,-2.47574 19.514748,-2.5286 29.056818,-0.0193 9.40988,2.47457 18.22296,7.43801 25.23997,14.3368 6.94474,6.82774 12.09861,15.52848 14.70832,24.99044 1.16154,4.21417 1.82078,8.53885 2.41979,12.91618 0.5955,4.35167 1.13262,8.76679 2.0503,13.09985 0.91003,4.33118 2.21828,8.64089 4.30626,12.59678 2.08735,3.95467 4.98731,7.56145 8.70928,10.11216 5.77222,3.94634 13.17378,5.05629 19.9848,3.82006 6.84839,-1.24301 13.11968,-4.71142 18.35713,-9.14714 5.26241,-4.46609 9.50651,-9.84017 13.36279,-15.47274 3.87983,-5.66696 7.38152,-11.61097 11.13852,-17.23421 3.80873,-5.688 7.91564,-11.07774 12.87399,-15.56606 5.03366,-4.55648 10.93011,-8.10085 17.3456,-9.63367 6.54998,-1.56493 13.58686,-0.89117 19.21601,2.35206 2.884,1.6693 5.33661,3.97106 7.077,6.67712 1.79496,2.79091 2.81452,5.99769 2.91949,9.17792 0.11787,3.54271 -0.88976,7.03698 -2.55462,10.04625 -1.74092,3.14677 -4.19632,5.81106 -6.89726,7.97726 -5.65523,4.54957 -12.69086,7.2033 -19.28163,9.57352 -7.26839,2.61393 -14.11997,4.98776 -20.14553,9.19184 -3.25476,2.26571 -5.99649,4.90441 -8.06354,7.88311 -2.3416,3.37437 -3.70668,7.05171 -4.06937,10.62159 -0.28728,2.83447 0.0443,5.55245 0.65521,8.04185 0.12366,0.50396 0.2647,1.02134 0.42458,1.55322 0.83374,2.77365 2.07858,5.62322 3.77805,8.85442 2.33606,4.44145 6.28097,10.7697 7.79522,16.76978 1.76979,7.06275 0.75151,15.22373 -3.17763,22.419 -3.65623,6.6954 -9.5946,12.23226 -16.67874,15.9225 -6.99361,3.64306 -14.85025,5.41878 -22.66314,5.76522 -8.11246,0.35971 -16.08904,-0.79284 -23.47241,-2.57514 -35.62394,-8.78954 -62.9347,-33.86002 -76.65038,-61.40316 -18.481947,-37.11451 -12.79938,-74.93744 -2.77802,-98.26583 -10.01589,23.31564 -15.774329,61.13861 2.63628,98.33619 13.66393,27.60719 40.95552,52.8303 76.68531,61.76267 7.38067,1.88455 15.40282,3.16184 23.60783,2.91465 7.90184,-0.23806 15.92832,-1.91932 23.14074,-5.54525 7.30574,-3.67287 13.53452,-9.28769 17.43943,-16.20831 4.19605,-7.4367 5.41485,-15.9998 3.62367,-23.54023 -1.49089,-6.32121 -5.53428,-13.01824 -7.7214,-17.28047 -1.63367,-3.18375 -2.79529,-5.9082 -3.57419,-8.52191 -0.14894,-0.4998 -0.28015,-0.9837 -0.39531,-1.45301 -0.56976,-2.32186 -0.86453,-4.79545 -0.60874,-7.33747 0.32055,-3.19432 1.54108,-6.54469 3.69044,-9.66313 1.89811,-2.7539 4.44571,-5.2375 7.52791,-7.40321 5.75731,-4.03572 12.32963,-6.34109 19.65837,-8.99834 6.55796,-2.37777 13.88219,-5.14294 19.80773,-9.93851 2.83692,-2.30258 5.45101,-5.16131 7.31021,-8.57248 1.77807,-3.2623 2.86423,-7.08151 2.70801,-10.99124 -0.1411,-3.51054 -1.28959,-7.00918 -3.26417,-10.02949 -1.91487,-2.92896 -4.58443,-5.38813 -7.69045,-7.15406 -6.05392,-3.4569 -13.51728,-4.10919 -20.37259,-2.4426 -6.71598,1.63274 -12.81438,5.35301 -17.9596,10.04835 -5.0658,4.62289 -9.22536,10.13934 -13.03529,15.8798 -3.77419,5.67407 -7.2612,11.62014 -11.09528,17.24505 -3.81422,5.59575 -7.97205,10.87303 -13.10076,15.24393 -5.09288,4.34958 -11.15811,7.72329 -17.74485,8.94717 -6.55093,1.21724 -13.64054,0.16796 -19.1462,-3.56243 -3.5601,-2.40611 -6.37699,-5.84695 -8.43011,-9.67657 -2.05404,-3.83136 -3.36524,-8.03602 -4.29258,-12.3123 -0.92262,-4.28809 -1.46834,-8.65664 -2.08071,-13.02696 -0.61362,-4.37922 -1.2931,-8.7511 -2.4848,-13.02115 -2.67752,-9.60016 -7.93234,-18.4094 -14.99195,-25.31066 -7.13325,-6.97324 -16.07352,-11.97259 -25.60409,-14.45027 -9.66467,-2.51253 -19.89348,-2.42849 -29.38363,0.0995 -9.661647,2.5737 -18.520041,7.66157 -25.550758,14.47877 -7.189412,6.97109 -12.445623,15.7153 -15.295331,25.05283 -2.928813,9.59672 -3.314901,19.77922 -1.350098,29.30759 2.006053,9.75963 6.593733,18.80777 12.873551,26.30546 6.399352,7.6404 14.551163,13.673 23.620061,17.33704 10.781265,4.35031 22.507515,5.44252 33.530805,4.10076 11.57558,-1.40899 22.49328,-5.45099 32.11306,-10.85347 20.32852,-11.40449 35.96423,-29.34182 48.60017,-47.02595 8.07734,-11.31184 14.00224,-20.9049 22.18357,-30.75028 8.65764,-10.41858 18.21681,-18.76398 29.18372,-23.70044 15.87066,-7.14235 33.16669,-6.23984 46.48797,-0.76282 z"
       style="fill:#0000ff;fill-rule:nonzero;stroke:none;stroke-width:0.26458332px;stroke-linecap:butt;stroke-linejoin:miter;stroke-opacity:1" />
  </g>
</svg>
